G75*
G70*
%OFA0B0*%
%FSLAX24Y24*%
%IPPOS*%
%LPD*%
%AMOC8*
5,1,8,0,0,1.08239X$1,22.5*
%
%ADD10C,0.0000*%
%ADD11C,0.0591*%
%ADD12C,0.0660*%
%ADD13R,0.0906X0.0374*%
%ADD14R,0.0906X0.1280*%
%ADD15C,0.0740*%
%ADD16R,0.0394X0.0512*%
%ADD17R,0.0472X0.0472*%
%ADD18R,0.0709X0.0787*%
%ADD19R,0.0591X0.0630*%
%ADD20R,0.0866X0.0236*%
%ADD21C,0.0100*%
%ADD22C,0.0160*%
%ADD23C,0.0320*%
%ADD24C,0.0500*%
%ADD25C,0.0356*%
%ADD26C,0.0277*%
%ADD27C,0.0120*%
%ADD28C,0.0240*%
%ADD29C,0.0240*%
D10*
X002337Y003180D02*
X002337Y003180D01*
X002180Y003337D01*
X002180Y003338D02*
X002180Y020778D01*
X002337Y020936D01*
X021708Y020936D01*
X021865Y020778D01*
X021865Y003337D01*
X021865Y003337D01*
X021708Y003180D01*
X021707Y003180D02*
X002337Y003180D01*
D11*
X003908Y007015D03*
X004908Y007015D03*
X005908Y007015D03*
X006908Y007015D03*
X007908Y007015D03*
X008908Y007015D03*
X009908Y007015D03*
X010908Y007015D03*
X011908Y007015D03*
X012908Y007015D03*
X013908Y007015D03*
X014908Y007015D03*
X015908Y007015D03*
X016908Y007015D03*
X016908Y010015D03*
X015908Y010015D03*
X014908Y010015D03*
X013908Y010015D03*
X012908Y010015D03*
X011908Y010015D03*
X010908Y010015D03*
X009908Y010015D03*
X008908Y010015D03*
X007908Y010015D03*
X006908Y010015D03*
X005908Y010015D03*
X004908Y010015D03*
X003908Y010015D03*
D12*
X018965Y008097D03*
X018965Y006176D03*
D13*
X018962Y009852D03*
X018962Y010757D03*
X018962Y011663D03*
D14*
X021285Y010757D03*
D15*
X015908Y011465D03*
X014908Y011565D03*
X013908Y011465D03*
X012908Y011565D03*
X011908Y011465D03*
X010908Y011565D03*
X009908Y011465D03*
X008908Y011565D03*
X007908Y011465D03*
X006908Y011565D03*
X005908Y011465D03*
X004908Y011565D03*
X002794Y011015D03*
X002694Y010015D03*
X002794Y009015D03*
X002694Y008015D03*
X002794Y007015D03*
X002694Y006015D03*
X004908Y005565D03*
X005908Y005465D03*
X006908Y005565D03*
X007908Y005465D03*
X008908Y005565D03*
X009908Y005465D03*
X010908Y005565D03*
X011908Y005465D03*
X012908Y005565D03*
X013908Y005465D03*
X014908Y005565D03*
X015908Y005465D03*
X015857Y003917D03*
X014857Y004017D03*
X013857Y003917D03*
X012857Y004017D03*
X011857Y003917D03*
X010857Y004017D03*
X009857Y003917D03*
X008857Y004017D03*
X007857Y003917D03*
X006857Y004017D03*
X005857Y003917D03*
X004857Y004017D03*
X016857Y004017D03*
X017857Y003917D03*
X018857Y004017D03*
X019857Y003917D03*
X018978Y016814D03*
X018978Y017954D03*
X018146Y019982D03*
X017006Y019982D03*
X015983Y017950D03*
X015983Y016810D03*
X013529Y018183D03*
X013429Y019183D03*
X013529Y020183D03*
X012036Y020183D03*
X011936Y019183D03*
X012036Y018183D03*
X010532Y018183D03*
X010432Y019183D03*
X010532Y020183D03*
X009028Y020182D03*
X008928Y019182D03*
X009028Y018182D03*
X007532Y018181D03*
X007432Y019181D03*
X007532Y020181D03*
X006026Y020181D03*
X005926Y019181D03*
X006026Y018181D03*
X004530Y018181D03*
X004430Y019181D03*
X004530Y020181D03*
X002931Y020180D03*
X002831Y019180D03*
X002931Y018180D03*
X002831Y017180D03*
D16*
X020412Y008475D03*
X020412Y007727D03*
X020412Y006546D03*
X020412Y005798D03*
D17*
X020999Y004440D03*
X020999Y003652D03*
X012696Y008671D03*
X011908Y008671D03*
X009271Y008419D03*
X008483Y008419D03*
X005806Y008416D03*
X005019Y008416D03*
X002613Y004715D03*
X002613Y003928D03*
X015604Y013437D03*
X015604Y014225D03*
X016567Y014204D03*
X016567Y013417D03*
X018295Y013430D03*
X018295Y014218D03*
X019218Y014247D03*
X019218Y013460D03*
X019230Y015254D03*
X018442Y015254D03*
X016441Y015267D03*
X015653Y015267D03*
X014580Y019386D03*
X014580Y020174D03*
X008834Y017235D03*
X008046Y017235D03*
D18*
X017814Y011489D03*
X017814Y010229D03*
X021359Y007286D03*
X021359Y006026D03*
D19*
X020517Y013814D03*
X014305Y013871D03*
X003912Y004282D03*
D20*
X008912Y012902D03*
X008912Y013402D03*
X008912Y013902D03*
X008912Y014402D03*
X008912Y014902D03*
X008912Y015402D03*
X008912Y015902D03*
X008912Y016402D03*
X010960Y016402D03*
X010960Y015902D03*
X010960Y015402D03*
X010960Y014902D03*
X010960Y014402D03*
X010960Y013902D03*
X010960Y013402D03*
X010960Y012902D03*
D21*
X017495Y007157D02*
X018204Y006054D01*
X017101Y005778D02*
X017097Y005715D01*
X017096Y005651D01*
X017100Y005587D01*
X017107Y005524D01*
X017118Y005461D01*
X017133Y005399D01*
X017151Y005338D01*
X017173Y005278D01*
X017198Y005220D01*
X017227Y005163D01*
X017259Y005108D01*
X017294Y005054D01*
X017332Y005003D01*
X017373Y004955D01*
X017418Y004909D01*
X017464Y004865D01*
X017513Y004825D01*
X017565Y004787D01*
X017618Y004753D01*
X017674Y004721D01*
X017731Y004693D01*
X017790Y004669D01*
X017850Y004648D01*
X017912Y004630D01*
X017974Y004616D01*
X018037Y004606D01*
X018100Y004600D01*
X018164Y004597D01*
X017857Y003917D02*
X016471Y004952D01*
X016492Y004958D01*
X016512Y004967D01*
X016531Y004979D01*
X016547Y004994D01*
X016562Y005010D01*
X016574Y005029D01*
X016583Y005049D01*
X016589Y005070D01*
X015841Y004479D02*
X015800Y004480D01*
X015758Y004485D01*
X015718Y004493D01*
X015678Y004505D01*
X015639Y004519D01*
X015601Y004537D01*
X015565Y004558D01*
X015172Y004479D02*
X015857Y003917D01*
X015841Y004479D02*
X015888Y004478D01*
X015935Y004473D01*
X015981Y004465D01*
X016027Y004454D01*
X016071Y004439D01*
X016114Y004421D01*
X016156Y004400D01*
X016857Y004017D01*
X015172Y004480D02*
X015143Y004501D01*
X015112Y004520D01*
X015078Y004535D01*
X015044Y004546D01*
X015008Y004554D01*
X014972Y004558D01*
X014936Y004559D01*
X014936Y004558D02*
X014463Y004558D01*
X014438Y004560D01*
X014413Y004564D01*
X014389Y004573D01*
X014366Y004584D01*
X014345Y004597D01*
X014149Y004676D02*
X013558Y004676D01*
X013479Y004479D02*
X013912Y004479D01*
X012908Y005565D02*
X012954Y005615D01*
X013002Y005663D01*
X013053Y005707D01*
X013107Y005750D01*
X013162Y005789D01*
X013219Y005826D01*
X013278Y005860D01*
X013338Y005890D01*
X013400Y005918D01*
X013464Y005942D01*
X013528Y005963D01*
X013594Y005981D01*
X013660Y005996D01*
X013727Y006007D01*
X013794Y006015D01*
X016589Y005070D02*
X016638Y005191D01*
X016682Y005314D01*
X016720Y005439D01*
X016753Y005565D01*
X016779Y005693D01*
X016799Y005822D01*
X016814Y005951D01*
X016823Y006081D01*
X016825Y006212D01*
X016826Y006211D02*
X016908Y007015D01*
X016825Y007589D02*
X016878Y007587D01*
X016930Y007582D01*
X016982Y007572D01*
X017033Y007559D01*
X017083Y007543D01*
X017132Y007522D01*
X017179Y007499D01*
X017224Y007472D01*
X017267Y007442D01*
X017308Y007408D01*
X017347Y007372D01*
X017382Y007333D01*
X017415Y007292D01*
X017445Y007249D01*
X017471Y007203D01*
X017494Y007156D01*
X017259Y007826D02*
X013479Y007826D01*
X013400Y007589D02*
X016826Y007589D01*
X016589Y008574D02*
X016908Y010015D01*
X015908Y010015D02*
X015208Y010515D01*
X014908Y010015D02*
X014208Y010515D01*
X013608Y010915D01*
X013208Y010515D02*
X012608Y010915D01*
X012208Y010515D02*
X011508Y010915D01*
X011908Y011465D02*
X011589Y012644D01*
X011589Y012723D02*
X011589Y013234D01*
X011587Y013258D01*
X011582Y013281D01*
X011573Y013304D01*
X011561Y013325D01*
X011546Y013343D01*
X011529Y013360D01*
X011509Y013373D01*
X011487Y013384D01*
X011464Y013391D01*
X011440Y013395D01*
X011416Y013395D01*
X011393Y013391D01*
X012062Y013495D02*
X012063Y013543D01*
X012060Y013592D01*
X012053Y013640D01*
X012043Y013687D01*
X012029Y013734D01*
X012012Y013779D01*
X011991Y013823D01*
X011967Y013865D01*
X011940Y013905D01*
X011910Y013943D01*
X011877Y013979D01*
X011841Y014012D01*
X011803Y014042D01*
X011763Y014069D01*
X011721Y014093D01*
X011677Y014114D01*
X011632Y014131D01*
X011585Y014145D01*
X011538Y014155D01*
X011490Y014162D01*
X011441Y014165D01*
X011393Y014164D01*
X010448Y014164D01*
X010448Y014165D02*
X010426Y014167D01*
X010404Y014171D01*
X010383Y014179D01*
X010363Y014190D01*
X010345Y014203D01*
X010329Y014219D01*
X010316Y014237D01*
X010305Y014257D01*
X010297Y014278D01*
X010293Y014300D01*
X010291Y014322D01*
X010290Y014322D02*
X010290Y016093D01*
X010287Y016125D01*
X010288Y016156D01*
X010292Y016188D01*
X010300Y016218D01*
X010312Y016248D01*
X010327Y016276D01*
X010345Y016302D01*
X010366Y016326D01*
X010389Y016347D01*
X010415Y016366D01*
X010443Y016381D01*
X010472Y016393D01*
X010503Y016402D01*
X010534Y016407D01*
X010566Y016408D01*
X010960Y016402D01*
X012022Y016605D02*
X012019Y016665D01*
X012011Y016724D01*
X012000Y016783D01*
X011985Y016841D01*
X011967Y016898D01*
X011946Y016954D01*
X011921Y017008D01*
X011892Y017061D01*
X011861Y017112D01*
X011826Y017161D01*
X011789Y017208D01*
X011748Y017252D01*
X011705Y017294D01*
X011660Y017333D01*
X011612Y017369D01*
X011562Y017402D01*
X011510Y017432D01*
X011473Y017455D01*
X011437Y017480D01*
X011404Y017508D01*
X011373Y017539D01*
X011344Y017572D01*
X011318Y017608D01*
X011296Y017645D01*
X011276Y017684D01*
X011260Y017725D01*
X011247Y017766D01*
X011237Y017809D01*
X011231Y017852D01*
X011229Y017896D01*
X011230Y017940D01*
X011235Y017983D01*
X010605Y016408D02*
X010514Y016411D01*
X010424Y016418D01*
X010335Y016429D01*
X010245Y016444D01*
X010157Y016464D01*
X010070Y016488D01*
X009984Y016515D01*
X009899Y016547D01*
X009816Y016582D01*
X009734Y016622D01*
X009655Y016665D01*
X009578Y016712D01*
X009503Y016762D01*
X009503Y016763D02*
X008834Y017235D01*
X008322Y015897D02*
X008245Y015898D01*
X008169Y015903D01*
X008093Y015912D01*
X008018Y015924D01*
X007943Y015940D01*
X007869Y015960D01*
X007797Y015983D01*
X007725Y016010D01*
X007655Y016040D01*
X007587Y016074D01*
X007520Y016110D01*
X007455Y016151D01*
X007392Y016194D01*
X007331Y016240D01*
X007273Y016289D01*
X007217Y016341D01*
X007164Y016396D01*
X007113Y016453D01*
X007065Y016513D01*
X007021Y016574D01*
X006979Y016638D01*
X006940Y016704D01*
X006905Y016772D01*
X006873Y016841D01*
X006845Y016912D01*
X006820Y016984D01*
X006798Y017058D01*
X006781Y017132D01*
X006766Y017207D01*
X006756Y017282D01*
X006749Y017358D01*
X006746Y017435D01*
X006747Y017511D01*
X008046Y017235D02*
X008045Y016754D01*
X008361Y016408D02*
X008912Y016402D01*
X008912Y015902D02*
X008322Y015897D01*
X008912Y015402D02*
X009897Y015400D01*
X009908Y011465D01*
X009408Y010715D02*
X008908Y010015D01*
X008408Y010815D02*
X007908Y010015D01*
X007408Y010715D02*
X006908Y010015D01*
X006353Y009440D02*
X003834Y009361D01*
X003794Y009363D01*
X003754Y009368D01*
X003715Y009377D01*
X003677Y009390D01*
X003640Y009406D01*
X003605Y009425D01*
X003572Y009448D01*
X003541Y009473D01*
X003512Y009501D01*
X003486Y009532D01*
X003463Y009565D01*
X003443Y009600D01*
X003427Y009636D01*
X003413Y009674D01*
X003404Y009713D01*
X003398Y009753D01*
X003395Y009793D01*
X003396Y009833D01*
X003401Y009873D01*
X003400Y009873D02*
X003400Y017550D01*
X005212Y017983D02*
X005207Y018054D01*
X005198Y018125D01*
X005186Y018195D01*
X005170Y018265D01*
X005151Y018334D01*
X005128Y018402D01*
X005102Y018468D01*
X005072Y018533D01*
X005040Y018597D01*
X005004Y018658D01*
X004965Y018718D01*
X004922Y018776D01*
X004878Y018831D01*
X004830Y018885D01*
X004780Y018935D01*
X004727Y018983D01*
X004671Y019029D01*
X004614Y019071D01*
X004555Y019111D01*
X004493Y019147D01*
X004430Y019181D01*
X004530Y020181D02*
X006026Y020181D01*
X007532Y020181D01*
X008243Y020181D01*
X009028Y020182D01*
X010532Y020183D01*
X012036Y020183D01*
X013529Y020183D01*
X014580Y019386D02*
X014580Y018959D01*
X014149Y018456D02*
X014148Y018508D01*
X014144Y018560D01*
X014136Y018611D01*
X014124Y018662D01*
X014109Y018711D01*
X014090Y018760D01*
X014067Y018807D01*
X014041Y018852D01*
X014012Y018895D01*
X013980Y018935D01*
X013945Y018974D01*
X013907Y019009D01*
X013866Y019042D01*
X013824Y019072D01*
X013779Y019098D01*
X013732Y019121D01*
X013684Y019141D01*
X013635Y019157D01*
X013584Y019169D01*
X013533Y019178D01*
X013481Y019183D01*
X013429Y019184D01*
X012652Y018574D02*
X012652Y018219D01*
X012652Y018574D02*
X012650Y018623D01*
X012644Y018671D01*
X012635Y018718D01*
X012622Y018765D01*
X012605Y018811D01*
X012584Y018855D01*
X012561Y018897D01*
X012534Y018937D01*
X012503Y018976D01*
X012470Y019011D01*
X012435Y019044D01*
X012397Y019074D01*
X012356Y019101D01*
X012314Y019124D01*
X012269Y019145D01*
X012224Y019161D01*
X012177Y019174D01*
X012129Y019184D01*
X012081Y019189D01*
X012033Y019191D01*
X011984Y019189D01*
X011936Y019183D01*
X012653Y018219D02*
X012655Y018168D01*
X012654Y018117D01*
X012649Y018067D01*
X012641Y018017D01*
X012629Y017967D01*
X012614Y017919D01*
X012596Y017871D01*
X012574Y017825D01*
X012298Y016684D02*
X012298Y015503D01*
X012299Y015503D02*
X012302Y015459D01*
X012303Y015415D01*
X012299Y015371D01*
X012292Y015327D01*
X012281Y015284D01*
X012266Y015243D01*
X012248Y015202D01*
X012227Y015164D01*
X012203Y015127D01*
X012175Y015092D01*
X012145Y015060D01*
X012112Y015031D01*
X012077Y015004D01*
X012039Y014981D01*
X012000Y014961D01*
X011960Y014944D01*
X011917Y014930D01*
X011874Y014921D01*
X011831Y014914D01*
X011787Y014912D01*
X011786Y014912D02*
X010960Y014902D01*
X010960Y015402D02*
X011625Y015397D01*
X012574Y015030D02*
X012573Y014982D01*
X012569Y014935D01*
X012562Y014887D01*
X012550Y014841D01*
X012535Y014795D01*
X012516Y014751D01*
X012494Y014708D01*
X012469Y014668D01*
X012440Y014629D01*
X012409Y014593D01*
X012375Y014559D01*
X012338Y014528D01*
X012299Y014500D01*
X012258Y014476D01*
X012215Y014454D01*
X012171Y014436D01*
X012125Y014422D01*
X012078Y014411D01*
X012031Y014404D01*
X011983Y014400D01*
X010960Y014402D01*
X010960Y013402D02*
X011013Y013389D01*
X011067Y013379D01*
X011121Y013373D01*
X011176Y013370D01*
X011230Y013371D01*
X011285Y013374D01*
X011339Y013381D01*
X011393Y013392D01*
X011826Y013550D02*
X011823Y013586D01*
X011815Y013622D01*
X011805Y013658D01*
X011790Y013692D01*
X011773Y013724D01*
X011752Y013754D01*
X011729Y013783D01*
X011703Y013809D01*
X011674Y013832D01*
X011644Y013852D01*
X011611Y013870D01*
X011577Y013884D01*
X011542Y013894D01*
X011506Y013901D01*
X011469Y013905D01*
X011432Y013904D01*
X011826Y013549D02*
X011826Y012762D01*
X011589Y012722D02*
X011585Y012696D01*
X011585Y012670D01*
X011589Y012644D01*
X012062Y012904D02*
X012062Y013495D01*
X012062Y012905D02*
X012061Y012870D01*
X012065Y012835D01*
X012071Y012800D01*
X012081Y012766D01*
X012095Y012734D01*
X012111Y012703D01*
X012131Y012674D01*
X012153Y012647D01*
X012178Y012622D01*
X012205Y012599D01*
X012234Y012580D01*
X012265Y012564D01*
X012298Y012550D01*
X012928Y012314D01*
X011507Y010915D02*
X011443Y010954D01*
X011381Y010996D01*
X011321Y011041D01*
X011264Y011089D01*
X011209Y011140D01*
X011157Y011194D01*
X011108Y011250D01*
X011061Y011309D01*
X011018Y011370D01*
X010978Y011433D01*
X010941Y011498D01*
X010907Y011565D01*
X010908Y011565D02*
X010920Y012604D01*
X010960Y012902D01*
X011826Y012762D02*
X011823Y012726D01*
X011824Y012690D01*
X011828Y012654D01*
X011835Y012618D01*
X011846Y012583D01*
X011859Y012550D01*
X011876Y012518D01*
X011896Y012487D01*
X011919Y012459D01*
X011944Y012433D01*
X013794Y006015D02*
X014138Y006053D01*
X014479Y006105D01*
X014818Y006172D01*
X014699Y004793D02*
X014737Y004780D01*
X014776Y004769D01*
X014816Y004761D01*
X014856Y004756D01*
X014896Y004754D01*
X014345Y004361D02*
X014857Y004017D01*
X014897Y004755D02*
X014961Y004753D01*
X015025Y004748D01*
X015089Y004739D01*
X015152Y004727D01*
X015214Y004713D01*
X015276Y004694D01*
X015337Y004673D01*
X015396Y004649D01*
X015454Y004621D01*
X015511Y004591D01*
X015566Y004558D01*
X014346Y004597D02*
X014316Y004618D01*
X014285Y004635D01*
X014253Y004650D01*
X014219Y004662D01*
X014184Y004670D01*
X014149Y004676D01*
X013558Y004676D02*
X013525Y004678D01*
X013493Y004682D01*
X013461Y004690D01*
X013430Y004701D01*
X013400Y004715D01*
X013243Y004755D02*
X012298Y004755D01*
X012259Y004757D01*
X012221Y004763D01*
X012184Y004772D01*
X012147Y004785D01*
X012112Y004802D01*
X012079Y004821D01*
X012048Y004844D01*
X012019Y004870D01*
X011993Y004899D01*
X011970Y004930D01*
X011951Y004963D01*
X011934Y004998D01*
X011921Y005035D01*
X011912Y005072D01*
X011906Y005110D01*
X011904Y005149D01*
X011393Y004558D02*
X011352Y004560D01*
X011311Y004565D01*
X011271Y004574D01*
X011232Y004586D01*
X011194Y004602D01*
X011157Y004621D01*
X011122Y004643D01*
X011090Y004668D01*
X011059Y004696D01*
X011031Y004727D01*
X011006Y004759D01*
X010984Y004794D01*
X010965Y004831D01*
X010949Y004869D01*
X010937Y004908D01*
X010928Y004948D01*
X010923Y004989D01*
X010921Y005030D01*
X011393Y004558D02*
X012810Y004558D01*
X011907Y005466D02*
X011938Y005526D01*
X011972Y005585D01*
X012010Y005642D01*
X012050Y005697D01*
X012093Y005750D01*
X012139Y005800D01*
X012187Y005848D01*
X012238Y005893D01*
X012291Y005935D01*
X012347Y005974D01*
X012404Y006011D01*
X012464Y006044D01*
X012525Y006074D01*
X012587Y006100D01*
X012651Y006124D01*
X012716Y006143D01*
X012782Y006160D01*
X012849Y006173D01*
X013440Y006684D02*
X013908Y007015D01*
X014148Y006409D02*
X014202Y006421D01*
X014256Y006438D01*
X014308Y006457D01*
X014358Y006481D01*
X014407Y006507D01*
X014454Y006537D01*
X014499Y006569D01*
X014542Y006605D01*
X014583Y006643D01*
X014620Y006684D01*
X015802Y006093D02*
X015861Y006131D01*
X015918Y006171D01*
X015972Y006215D01*
X016024Y006262D01*
X016074Y006312D01*
X016120Y006364D01*
X016164Y006419D01*
X016204Y006476D01*
X016241Y006535D01*
X016275Y006597D01*
X016306Y006660D01*
X016332Y006724D01*
X016356Y006790D01*
X016375Y006858D01*
X016391Y006926D01*
X016403Y006995D01*
X016411Y007064D01*
X016415Y007134D01*
X016416Y007204D01*
X016412Y007274D01*
X018204Y006054D02*
X018231Y006023D01*
X018260Y005996D01*
X018292Y005971D01*
X018327Y005949D01*
X018363Y005931D01*
X018400Y005916D01*
X018439Y005904D01*
X018478Y005896D01*
X018519Y005891D01*
X018559Y005890D01*
X018600Y005893D01*
X018640Y005899D01*
X018679Y005909D01*
X018717Y005923D01*
X018754Y005940D01*
X018789Y005960D01*
X018822Y005983D01*
X018853Y006009D01*
X018881Y006038D01*
X018907Y006070D01*
X018929Y006103D01*
X018949Y006139D01*
X018965Y006176D01*
X020412Y005798D01*
X020412Y006546D02*
X020373Y007117D01*
X020412Y007727D01*
X020412Y008475D02*
X018965Y008097D01*
X020093Y004558D02*
X020999Y004440D01*
X020999Y003652D02*
X020330Y003416D01*
X020054Y003377D02*
X019660Y003377D01*
X019605Y003379D01*
X019549Y003384D01*
X019495Y003394D01*
X019441Y003407D01*
X019388Y003423D01*
X019336Y003443D01*
X019286Y003467D01*
X019237Y003494D01*
X019191Y003524D01*
X019146Y003557D01*
X019104Y003593D01*
X019064Y003632D01*
X019027Y003673D01*
X018993Y003717D01*
X018962Y003763D01*
X018934Y003811D01*
X018910Y003860D01*
X018889Y003912D01*
X018871Y003964D01*
X018857Y004018D01*
X020054Y003377D02*
X020100Y003376D01*
X020147Y003378D01*
X020193Y003383D01*
X020239Y003391D01*
X020285Y003402D01*
X020329Y003416D01*
X008908Y011565D02*
X008653Y011194D01*
X008408Y010815D01*
X006408Y010715D02*
X005908Y010015D01*
X005408Y010715D02*
X004908Y010015D01*
X004308Y010715D02*
X003908Y010015D01*
X005019Y008416D02*
X004306Y007904D01*
X004306Y007511D02*
X004908Y007015D01*
X005308Y006215D01*
X005908Y005465D01*
X005526Y007786D02*
X005411Y007784D01*
X005295Y007776D01*
X005181Y007764D01*
X005066Y007746D01*
X004953Y007724D01*
X004841Y007697D01*
X004730Y007665D01*
X004621Y007629D01*
X003908Y007015D02*
X004385Y006133D01*
X004779Y004991D02*
X004847Y004973D01*
X004916Y004959D01*
X004986Y004948D01*
X005056Y004941D01*
X005127Y004936D01*
X005198Y004935D01*
X005268Y004937D01*
X005339Y004943D01*
X005409Y004952D01*
X005802Y004558D02*
X004857Y004558D01*
X004582Y004519D02*
X003912Y004282D01*
X003204Y003416D02*
X003157Y003418D01*
X003110Y003424D01*
X003063Y003433D01*
X003018Y003446D01*
X002973Y003462D01*
X002930Y003482D01*
X002889Y003506D01*
X002850Y003532D01*
X002813Y003562D01*
X002778Y003594D01*
X002747Y003629D01*
X002718Y003667D01*
X002692Y003706D01*
X002669Y003748D01*
X002650Y003791D01*
X002634Y003836D01*
X002622Y003882D01*
X002613Y003928D01*
X003204Y003416D02*
X004778Y003416D01*
X004582Y004519D02*
X004626Y004533D01*
X004672Y004544D01*
X004718Y004552D01*
X004764Y004557D01*
X004811Y004559D01*
X004857Y004558D01*
X005252Y003534D02*
X005204Y003507D01*
X005155Y003482D01*
X005104Y003461D01*
X005051Y003444D01*
X004998Y003431D01*
X004944Y003421D01*
X004889Y003416D01*
X004834Y003414D01*
X004779Y003416D01*
X005251Y003534D02*
X005857Y003917D01*
X005802Y004558D02*
X005870Y004556D01*
X005939Y004551D01*
X006006Y004542D01*
X006074Y004529D01*
X006140Y004513D01*
X006206Y004494D01*
X006270Y004471D01*
X006333Y004445D01*
X006395Y004415D01*
X006455Y004382D01*
X006513Y004346D01*
X006569Y004307D01*
X006623Y004266D01*
X006675Y004221D01*
X006725Y004174D01*
X006771Y004124D01*
X006816Y004072D01*
X006857Y004017D01*
X007857Y003917D02*
X008908Y005565D01*
X008408Y006115D01*
X007908Y007015D01*
X011943Y012432D02*
X012151Y012276D01*
X012352Y012111D01*
X012545Y011938D01*
X012730Y011756D01*
X012907Y011565D01*
X013208Y010515D02*
X013908Y010015D01*
X012908Y010015D02*
X012208Y010515D01*
X014149Y012117D02*
X014660Y012117D01*
X014908Y012035D01*
X013608Y010915D02*
X013496Y010994D01*
X013387Y011078D01*
X013283Y011166D01*
X013182Y011259D01*
X013086Y011357D01*
X012995Y011459D01*
X012908Y011565D01*
X008912Y012902D02*
X008123Y012896D01*
X008123Y013408D02*
X008912Y013402D01*
X008912Y013902D02*
X008123Y013880D01*
X008243Y014400D02*
X008912Y014402D01*
X008912Y014902D02*
X008361Y014912D01*
X008086Y016408D02*
X008024Y016409D01*
X007963Y016414D01*
X007902Y016423D01*
X007842Y016436D01*
X007783Y016452D01*
X007725Y016473D01*
X007669Y016496D01*
X007614Y016524D01*
X007560Y016554D01*
X007509Y016588D01*
X007460Y016625D01*
X007414Y016665D01*
X007370Y016708D01*
X007329Y016754D01*
X007291Y016802D01*
X007256Y016853D01*
X007224Y016905D01*
X007196Y016960D01*
X007171Y017016D01*
X007149Y017073D01*
X007132Y017132D01*
X007118Y017192D01*
X007108Y017253D01*
X007101Y017314D01*
X006984Y017944D02*
X006966Y018006D01*
X006953Y018069D01*
X006943Y018132D01*
X006937Y018196D01*
X006935Y018260D01*
X006937Y018324D01*
X006942Y018388D01*
X006951Y018452D01*
X006964Y018515D01*
X006980Y018577D01*
X007000Y018638D01*
X007024Y018698D01*
X007051Y018756D01*
X007082Y018812D01*
X007115Y018867D01*
X007152Y018919D01*
X007192Y018970D01*
X007235Y019018D01*
X007281Y019063D01*
X007329Y019105D01*
X007379Y019145D01*
X007432Y019181D01*
X003597Y018416D02*
X003634Y018196D01*
X003682Y017978D01*
X003740Y017762D01*
X003808Y017550D01*
X003886Y017341D01*
X003974Y017136D01*
X004072Y016935D01*
X004179Y016739D01*
X004295Y016549D01*
X004421Y016364D01*
X004555Y016185D01*
X004697Y016013D01*
X004847Y015848D01*
X005005Y015691D01*
X005171Y015541D01*
X005343Y015399D01*
X005522Y015265D01*
X005707Y015141D01*
X005897Y015025D01*
X006094Y014918D01*
X006294Y014821D01*
X006500Y014733D01*
X006709Y014655D01*
X006922Y014588D01*
X007137Y014530D01*
X007356Y014483D01*
X007576Y014447D01*
X007797Y014420D01*
X008020Y014405D01*
X008243Y014400D01*
X010960Y015902D02*
X011550Y015897D01*
X012023Y015778D02*
X012020Y015740D01*
X012013Y015703D01*
X012003Y015666D01*
X011989Y015630D01*
X011972Y015596D01*
X011951Y015564D01*
X011928Y015534D01*
X011902Y015506D01*
X011873Y015481D01*
X011842Y015459D01*
X011809Y015440D01*
X011774Y015424D01*
X011738Y015412D01*
X011701Y015403D01*
X011663Y015398D01*
X011625Y015396D01*
X011550Y015897D02*
X011572Y015898D01*
X011594Y015903D01*
X011615Y015911D01*
X011635Y015922D01*
X011653Y015935D01*
X011669Y015951D01*
X011682Y015969D01*
X011693Y015989D01*
X011701Y016010D01*
X011706Y016032D01*
X011707Y016054D01*
X011707Y016487D02*
X011706Y016528D01*
X011700Y016569D01*
X011692Y016610D01*
X011680Y016649D01*
X011664Y016687D01*
X011645Y016724D01*
X011623Y016759D01*
X011598Y016791D01*
X011570Y016822D01*
X011539Y016850D01*
X011507Y016875D01*
X011472Y016897D01*
X011435Y016916D01*
X011397Y016932D01*
X011358Y016944D01*
X011317Y016952D01*
X011276Y016958D01*
X011235Y016959D01*
X010172Y016959D02*
X010132Y016961D01*
X010093Y016967D01*
X010054Y016976D01*
X010016Y016989D01*
X009980Y017006D01*
X009945Y017025D01*
X009912Y017048D01*
X009881Y017073D01*
X009853Y017101D01*
X009828Y017132D01*
X009805Y017165D01*
X009786Y017200D01*
X009769Y017236D01*
X009756Y017274D01*
X009747Y017313D01*
X009741Y017352D01*
X009739Y017392D01*
X011235Y017983D02*
X011243Y018046D01*
X011247Y018109D01*
X011247Y018173D01*
X011243Y018236D01*
X011235Y018299D01*
X011224Y018361D01*
X011210Y018423D01*
X011191Y018484D01*
X011169Y018543D01*
X011144Y018601D01*
X011115Y018657D01*
X011083Y018712D01*
X011048Y018765D01*
X011009Y018815D01*
X010968Y018863D01*
X010924Y018909D01*
X010877Y018952D01*
X010828Y018992D01*
X010777Y019029D01*
X010724Y019063D01*
X010668Y019094D01*
X010611Y019121D01*
X010552Y019145D01*
X010492Y019166D01*
X010431Y019183D01*
X009740Y018298D02*
X009739Y018356D01*
X009733Y018413D01*
X009725Y018470D01*
X009712Y018526D01*
X009696Y018581D01*
X009676Y018635D01*
X009653Y018687D01*
X009626Y018738D01*
X009597Y018787D01*
X009564Y018834D01*
X009528Y018879D01*
X009489Y018921D01*
X009447Y018961D01*
X009403Y018998D01*
X009357Y019032D01*
X009308Y019063D01*
X009258Y019090D01*
X009206Y019114D01*
X009153Y019135D01*
X009098Y019153D01*
X009042Y019166D01*
X008985Y019176D01*
X008928Y019182D01*
X005211Y017983D02*
X005222Y017827D01*
X005240Y017672D01*
X005266Y017517D01*
X005299Y017365D01*
X005340Y017214D01*
X005388Y017065D01*
X005443Y016919D01*
X005505Y016776D01*
X005574Y016635D01*
X005650Y016499D01*
X005733Y016366D01*
X005821Y016237D01*
X005916Y016113D01*
X006017Y015994D01*
X006123Y015879D01*
X006235Y015770D01*
X006352Y015667D01*
X006474Y015569D01*
X006601Y015477D01*
X006732Y015392D01*
X006866Y015313D01*
X007005Y015241D01*
X007147Y015175D01*
X007292Y015117D01*
X007439Y015065D01*
X007589Y015021D01*
X007741Y014984D01*
X007895Y014955D01*
X008049Y014933D01*
X008205Y014918D01*
X008361Y014912D01*
X006747Y017511D02*
X006748Y017608D01*
X006744Y017705D01*
X006735Y017801D01*
X006722Y017897D01*
X006704Y017992D01*
X006681Y018087D01*
X006654Y018180D01*
X006622Y018271D01*
X006586Y018361D01*
X006545Y018449D01*
X006500Y018535D01*
X006451Y018618D01*
X006398Y018699D01*
X006341Y018778D01*
X006281Y018853D01*
X006216Y018926D01*
X006149Y018995D01*
X006077Y019060D01*
X006003Y019123D01*
X005926Y019181D01*
X004530Y020181D02*
X002931Y020180D01*
X002832Y019180D02*
X002889Y019170D01*
X002945Y019156D01*
X003000Y019139D01*
X003055Y019118D01*
X003107Y019094D01*
X003158Y019067D01*
X003208Y019036D01*
X003255Y019002D01*
X003300Y018965D01*
X003342Y018926D01*
X003382Y018883D01*
X003419Y018839D01*
X003453Y018792D01*
X003484Y018743D01*
X003511Y018692D01*
X003536Y018639D01*
X003556Y018585D01*
X003574Y018529D01*
X003588Y018473D01*
X003598Y018416D01*
X002932Y018180D02*
X002978Y018164D01*
X003024Y018145D01*
X003068Y018122D01*
X003110Y018096D01*
X003150Y018067D01*
X003188Y018035D01*
X003223Y018000D01*
X003256Y017963D01*
X003285Y017923D01*
X003312Y017881D01*
X003335Y017837D01*
X003355Y017792D01*
X003371Y017745D01*
X003384Y017697D01*
X003394Y017649D01*
X003399Y017600D01*
X003401Y017550D01*
X006983Y017944D02*
X007018Y017820D01*
X007047Y017695D01*
X007071Y017569D01*
X007089Y017442D01*
X007101Y017314D01*
X006907Y011565D02*
X006796Y011345D01*
X006676Y011129D01*
X006546Y010919D01*
X006407Y010715D01*
X005806Y009115D02*
X005806Y008416D01*
X005802Y008416D01*
X005802Y008062D01*
X005800Y008031D01*
X005795Y008001D01*
X005787Y007971D01*
X005775Y007942D01*
X005760Y007915D01*
X005742Y007890D01*
X005721Y007867D01*
X005698Y007846D01*
X005673Y007828D01*
X005646Y007813D01*
X005617Y007801D01*
X005587Y007793D01*
X005557Y007788D01*
X005526Y007786D01*
X005908Y007015D02*
X006508Y006115D01*
X006908Y005565D01*
X007408Y006215D02*
X007908Y005465D01*
X008085Y016409D02*
X008361Y016409D01*
X012573Y016763D02*
X012577Y016817D01*
X012584Y016872D01*
X012595Y016925D01*
X012610Y016978D01*
X012629Y017030D01*
X012651Y017080D01*
X012677Y017128D01*
X012706Y017174D01*
X012738Y017219D01*
X012774Y017260D01*
X012812Y017300D01*
X012853Y017336D01*
X012897Y017369D01*
X012943Y017399D01*
X012991Y017426D01*
X013040Y017449D01*
X013091Y017469D01*
X013144Y017485D01*
X013197Y017497D01*
X013251Y017506D01*
X013306Y017510D01*
X013361Y017511D01*
X013754Y017511D02*
X013793Y017513D01*
X013831Y017518D01*
X013869Y017528D01*
X013905Y017541D01*
X013940Y017557D01*
X013973Y017577D01*
X014004Y017600D01*
X014033Y017626D01*
X014059Y017655D01*
X014082Y017686D01*
X014102Y017719D01*
X014118Y017754D01*
X014131Y017790D01*
X014141Y017828D01*
X014146Y017866D01*
X014148Y017905D01*
X012574Y017826D02*
X012522Y017719D01*
X012476Y017610D01*
X012434Y017499D01*
X012398Y017386D01*
X012368Y017271D01*
X012343Y017155D01*
X012323Y017039D01*
X012309Y016921D01*
X012301Y016803D01*
X012298Y016684D01*
X012928Y012314D02*
X013098Y012262D01*
X013269Y012217D01*
X013443Y012181D01*
X013618Y012153D01*
X013794Y012133D01*
X013971Y012121D01*
X014149Y012117D01*
X017258Y007826D02*
X017451Y007823D01*
X017645Y007828D01*
X017837Y007842D01*
X018029Y007864D01*
X018220Y007894D01*
X018409Y007933D01*
X018597Y007980D01*
X018782Y008035D01*
X018964Y008098D01*
X020448Y012117D02*
X021668Y012117D01*
X011708Y016054D02*
X011708Y016488D01*
X011908Y011465D02*
X012075Y011317D01*
X012247Y011176D01*
X012425Y011042D01*
X012608Y010915D01*
X013440Y006684D02*
X013383Y006646D01*
X013325Y006611D01*
X013265Y006579D01*
X013203Y006550D01*
X013140Y006525D01*
X013076Y006503D01*
X013011Y006484D01*
X012944Y006468D01*
X012877Y006456D01*
X012810Y006448D01*
X011908Y007015D02*
X011963Y007088D01*
X012021Y007159D01*
X012083Y007227D01*
X012148Y007292D01*
X012216Y007354D01*
X012287Y007412D01*
X012360Y007467D01*
X012436Y007519D01*
X012515Y007567D01*
X012595Y007611D01*
X012678Y007651D01*
X012762Y007687D01*
X012848Y007719D01*
X012936Y007747D01*
X013024Y007771D01*
X013114Y007790D01*
X013204Y007805D01*
X013296Y007816D01*
X013387Y007823D01*
X013479Y007825D01*
X013400Y007590D02*
X013357Y007588D01*
X013314Y007583D01*
X013272Y007573D01*
X013231Y007561D01*
X013192Y007544D01*
X013153Y007525D01*
X013117Y007502D01*
X013083Y007476D01*
X013051Y007447D01*
X013021Y007416D01*
X012995Y007382D01*
X012971Y007346D01*
X012951Y007309D01*
X012934Y007269D01*
X012920Y007228D01*
X012910Y007187D01*
X012904Y007144D01*
X012901Y007101D01*
X012902Y007058D01*
X012907Y007016D01*
X013164Y004518D02*
X013226Y004504D01*
X013289Y004493D01*
X013352Y004485D01*
X013415Y004481D01*
X013479Y004479D01*
X013401Y004716D02*
X013371Y004730D01*
X013340Y004741D01*
X013308Y004749D01*
X013276Y004753D01*
X013243Y004755D01*
X013715Y004912D02*
X013659Y004914D01*
X013603Y004919D01*
X013548Y004928D01*
X013493Y004941D01*
X013439Y004958D01*
X013387Y004979D01*
X013336Y005003D01*
X013287Y005030D01*
X013240Y005061D01*
X013195Y005095D01*
X013152Y005131D01*
X013112Y005171D01*
X013075Y005213D01*
X013041Y005258D01*
X013010Y005305D01*
X012983Y005354D01*
X012958Y005405D01*
X012938Y005457D01*
X012921Y005511D01*
X012907Y005565D01*
X013913Y004480D02*
X013963Y004481D01*
X014014Y004478D01*
X014065Y004472D01*
X014114Y004462D01*
X014163Y004449D01*
X014211Y004432D01*
X014258Y004412D01*
X014303Y004388D01*
X014346Y004362D01*
X014700Y004795D02*
X014629Y004822D01*
X014557Y004846D01*
X014484Y004866D01*
X014410Y004882D01*
X014336Y004895D01*
X014261Y004905D01*
X014185Y004911D01*
X014109Y004913D01*
X012810Y006448D02*
X012659Y006429D01*
X012508Y006403D01*
X012359Y006369D01*
X012212Y006329D01*
X012067Y006282D01*
X011924Y006227D01*
X011785Y006167D01*
X011648Y006099D01*
X011514Y006025D01*
X011384Y005945D01*
X011259Y005859D01*
X011137Y005767D01*
X011020Y005669D01*
X010908Y005565D01*
X009908Y005465D02*
X009857Y003917D01*
X009908Y005465D02*
X009408Y006115D01*
X008908Y007015D01*
X004308Y010715D02*
X004442Y010938D01*
X004587Y011155D01*
X004743Y011364D01*
X004908Y011565D01*
X006511Y008455D02*
X006511Y008329D01*
X006517Y008203D01*
X006530Y008077D01*
X006549Y007953D01*
X006573Y007829D01*
X006604Y007706D01*
X006640Y007585D01*
X006683Y007466D01*
X006731Y007350D01*
X006784Y007235D01*
X006843Y007124D01*
X006907Y007015D01*
X006908Y007015D02*
X007408Y006215D01*
X004908Y005566D02*
X004844Y005610D01*
X004782Y005657D01*
X004722Y005707D01*
X004665Y005760D01*
X004611Y005816D01*
X004560Y005875D01*
X004511Y005936D01*
X004466Y006000D01*
X004424Y006065D01*
X004385Y006133D01*
X003519Y005857D02*
X003597Y005424D01*
X004306Y007511D02*
X004221Y007577D01*
X004133Y007640D01*
X004041Y007698D01*
X003948Y007752D01*
X003851Y007801D01*
X003752Y007846D01*
X003652Y007886D01*
X003549Y007920D01*
X003445Y007950D01*
X003340Y007975D01*
X003234Y007995D01*
X003126Y008009D01*
X003018Y008019D01*
X002910Y008023D01*
X002802Y008022D01*
X002694Y008015D01*
X002794Y007015D02*
X003282Y006605D01*
X003597Y005424D02*
X003608Y005354D01*
X003615Y005284D01*
X003618Y005214D01*
X003617Y005143D01*
X003612Y005073D01*
X003604Y005003D01*
X003592Y004933D01*
X003576Y004864D01*
X003556Y004797D01*
X003533Y004730D01*
X003506Y004665D01*
X003476Y004601D01*
X003442Y004539D01*
X003405Y004479D01*
X003364Y004421D01*
X003321Y004366D01*
X003274Y004313D01*
X003225Y004262D01*
X003173Y004214D01*
X003119Y004169D01*
X003062Y004127D01*
X003003Y004089D01*
X002942Y004053D01*
X002879Y004021D01*
X002815Y003993D01*
X002749Y003968D01*
X002681Y003946D01*
X002613Y003928D01*
X002613Y004715D02*
X003046Y004676D01*
X003913Y005779D02*
X003867Y005873D01*
X003817Y005965D01*
X003763Y006055D01*
X003705Y006142D01*
X003644Y006227D01*
X003578Y006309D01*
X003509Y006388D01*
X003437Y006464D01*
X003361Y006536D01*
X003283Y006606D01*
X003912Y005778D02*
X003945Y005711D01*
X003981Y005645D01*
X004021Y005581D01*
X004064Y005519D01*
X004110Y005460D01*
X004158Y005403D01*
X004210Y005348D01*
X004264Y005296D01*
X004321Y005247D01*
X004381Y005201D01*
X004442Y005157D01*
X004506Y005117D01*
X004571Y005081D01*
X004639Y005047D01*
X004708Y005017D01*
X004778Y004991D01*
X010921Y005030D02*
X010908Y005565D01*
X012810Y004558D02*
X012869Y004558D01*
X012929Y004555D01*
X012988Y004550D01*
X013047Y004542D01*
X013106Y004531D01*
X013164Y004518D01*
X014818Y006172D02*
X014891Y006190D01*
X014963Y006211D01*
X015033Y006236D01*
X015102Y006265D01*
X015170Y006297D01*
X015236Y006332D01*
X015300Y006371D01*
X015362Y006412D01*
X015422Y006457D01*
X015480Y006505D01*
X015535Y006555D01*
X015588Y006609D01*
X015637Y006665D01*
X015684Y006723D01*
X015802Y006094D02*
X015614Y006004D01*
X015430Y005907D01*
X015251Y005801D01*
X015076Y005687D01*
X014907Y005566D01*
X010960Y016402D02*
X010605Y016409D01*
X012850Y006172D02*
X014149Y006408D01*
X019424Y004598D02*
X019648Y004595D01*
X019871Y004582D01*
X020094Y004558D01*
X017102Y005779D02*
X017135Y006075D01*
X017180Y006369D01*
X014109Y004912D02*
X013715Y004912D01*
X013529Y020184D02*
X014580Y020175D01*
X018164Y004597D02*
X019424Y004597D01*
X013755Y017511D02*
X013361Y017511D01*
X011235Y016959D02*
X010173Y016959D01*
X012022Y016605D02*
X012029Y016192D01*
X012022Y015779D01*
X006511Y008731D02*
X006511Y008455D01*
X010960Y013902D02*
X011432Y013904D01*
X009908Y011465D02*
X009664Y011086D01*
X009408Y010715D01*
X007908Y011465D02*
X007664Y011086D01*
X007408Y010715D01*
X005908Y011465D02*
X005664Y011086D01*
X005408Y010715D01*
X011907Y005466D02*
X011904Y005149D01*
X009739Y017392D02*
X009739Y018298D01*
X013908Y011466D02*
X015208Y010516D01*
X014148Y017904D02*
X014148Y018456D01*
X012573Y016763D02*
X012573Y015031D01*
D22*
X015008Y012115D02*
X018280Y012116D01*
X020448Y012117D01*
X021285Y010757D01*
X021685Y010788D02*
X019065Y010788D01*
X019065Y010915D02*
X019065Y010615D01*
X019667Y010419D01*
X019667Y009619D01*
X020165Y009194D01*
X020965Y009194D01*
X020965Y007049D01*
X021685Y007049D01*
X021685Y012115D01*
X019762Y012115D01*
X020412Y011802D01*
X020412Y011487D01*
X019565Y011115D01*
X019065Y010915D01*
X019143Y010947D02*
X021685Y010947D01*
X021685Y011105D02*
X019539Y011105D01*
X019903Y011264D02*
X021685Y011264D01*
X021685Y011422D02*
X020264Y011422D01*
X020412Y011581D02*
X021685Y011581D01*
X021685Y011739D02*
X020412Y011739D01*
X020214Y011898D02*
X021685Y011898D01*
X021685Y012056D02*
X019885Y012056D01*
X020172Y010739D02*
X020763Y009243D01*
X020965Y009045D02*
X021685Y009045D01*
X021685Y009203D02*
X020155Y009203D01*
X019969Y009362D02*
X021685Y009362D01*
X021685Y009520D02*
X019784Y009520D01*
X019857Y009479D02*
X018952Y009479D01*
X019667Y009679D02*
X021685Y009679D01*
X021685Y009837D02*
X019667Y009837D01*
X019667Y009996D02*
X021685Y009996D01*
X021685Y010154D02*
X019667Y010154D01*
X019667Y010313D02*
X021685Y010313D01*
X021685Y010471D02*
X019509Y010471D01*
X019065Y010630D02*
X021685Y010630D01*
X021685Y008886D02*
X020965Y008886D01*
X020965Y008728D02*
X021685Y008728D01*
X021685Y008569D02*
X020965Y008569D01*
X020965Y008411D02*
X021685Y008411D01*
X021685Y008252D02*
X020965Y008252D01*
X020965Y008094D02*
X021685Y008094D01*
X021685Y007935D02*
X020965Y007935D01*
X020965Y007777D02*
X021685Y007777D01*
X021685Y007618D02*
X020965Y007618D01*
X020965Y007460D02*
X021685Y007460D01*
X021685Y007301D02*
X020965Y007301D01*
X020965Y007143D02*
X021685Y007143D01*
X018952Y009479D02*
X018889Y009477D01*
X018825Y009472D01*
X018763Y009463D01*
X018700Y009450D01*
X018639Y009434D01*
X018579Y009415D01*
X018520Y009392D01*
X018462Y009366D01*
X018406Y009336D01*
X018351Y009303D01*
X018299Y009268D01*
X018249Y009229D01*
X018201Y009188D01*
X018155Y009144D01*
X018112Y009097D01*
X018072Y009048D01*
X018034Y008997D01*
X018000Y008944D01*
X017968Y008889D01*
X017967Y008889D02*
X017932Y008826D01*
X017893Y008765D01*
X017850Y008706D01*
X017805Y008650D01*
X017756Y008596D01*
X017705Y008545D01*
X017651Y008497D01*
X017595Y008452D01*
X017536Y008410D01*
X017475Y008371D01*
X017412Y008335D01*
X017347Y008303D01*
X017281Y008275D01*
X017213Y008250D01*
X017143Y008229D01*
X017073Y008211D01*
X017002Y008198D01*
X016930Y008188D01*
X016858Y008182D01*
X016786Y008180D01*
X012023Y008180D01*
X011830Y008198D01*
X009271Y009125D01*
X009271Y008419D01*
X009908Y007015D01*
X008483Y008419D02*
X008011Y008419D01*
X007787Y009115D02*
X009271Y009125D01*
X007787Y009115D02*
X005806Y009115D01*
X003408Y009115D01*
X003361Y009125D01*
X002794Y009015D01*
X010908Y010015D02*
X011908Y010015D01*
X011908Y008671D01*
X011830Y008198D01*
X012696Y008671D02*
X013189Y008710D01*
X014908Y012035D02*
X014919Y012054D01*
X014933Y012072D01*
X014949Y012087D01*
X014967Y012099D01*
X014987Y012109D01*
X015008Y012115D01*
D23*
X014908Y012035D02*
X014908Y011565D01*
X017814Y010229D02*
X018208Y010149D01*
X018962Y009852D01*
X018962Y011663D02*
X019782Y011645D01*
D24*
X018962Y011663D02*
X018005Y011623D01*
X017814Y011489D01*
X021359Y006026D02*
X021352Y006002D01*
X021352Y005387D01*
D25*
X021352Y005387D03*
X020373Y007117D03*
X019782Y011645D03*
X021121Y013828D03*
X013719Y013889D03*
X013189Y008710D03*
X008011Y008419D03*
D26*
X006511Y008731D03*
X006353Y009440D03*
X004621Y007629D03*
X003519Y005857D03*
X003046Y004676D03*
X008123Y012896D03*
X008123Y013408D03*
X008123Y013880D03*
X008045Y016754D03*
X013880Y012580D03*
X017180Y006369D03*
X014580Y018959D03*
D27*
X014580Y020174D02*
X014582Y020739D01*
X021668Y020739D01*
X021668Y012117D01*
X021121Y013828D02*
X020517Y013814D01*
X019218Y014247D02*
X019230Y015254D01*
X018442Y015254D02*
X018295Y014218D01*
X018295Y013430D02*
X018280Y012380D01*
X016580Y012980D02*
X016567Y013417D01*
X016580Y012980D02*
X016579Y012943D01*
X016575Y012906D01*
X016567Y012869D01*
X016556Y012834D01*
X016541Y012799D01*
X016524Y012767D01*
X016503Y012736D01*
X016479Y012707D01*
X016453Y012681D01*
X016424Y012657D01*
X016393Y012636D01*
X016361Y012619D01*
X016326Y012604D01*
X016291Y012593D01*
X016254Y012585D01*
X016217Y012581D01*
X016180Y012580D01*
X013880Y012580D01*
X013719Y013889D02*
X014305Y013871D01*
X015280Y013580D02*
X015604Y013437D01*
X015280Y013579D02*
X015249Y013595D01*
X015220Y013614D01*
X015193Y013635D01*
X015168Y013659D01*
X015146Y013686D01*
X015127Y013715D01*
X015111Y013745D01*
X015098Y013778D01*
X015089Y013811D01*
X015083Y013845D01*
X015080Y013880D01*
X015079Y014680D02*
X015082Y014728D01*
X015088Y014775D01*
X015099Y014822D01*
X015113Y014867D01*
X015130Y014911D01*
X015151Y014954D01*
X015175Y014995D01*
X015203Y015034D01*
X015233Y015070D01*
X015267Y015104D01*
X015302Y015136D01*
X015341Y015164D01*
X015381Y015189D01*
X015423Y015211D01*
X015467Y015230D01*
X015512Y015245D01*
X015558Y015256D01*
X015605Y015264D01*
X015653Y015267D01*
X016441Y015267D02*
X016567Y014204D01*
X015983Y017950D02*
X017006Y019982D01*
X018146Y019982D02*
X018978Y017954D01*
X018978Y016814D02*
X018879Y016632D01*
X018789Y016445D01*
X018708Y016254D01*
X018636Y016060D01*
X018573Y015862D01*
X018520Y015662D01*
X018477Y015459D01*
X018443Y015254D01*
X016441Y015266D02*
X016408Y015495D01*
X016364Y015722D01*
X016309Y015946D01*
X016244Y016168D01*
X016167Y016386D01*
X016080Y016600D01*
X015983Y016810D01*
X015908Y007015D02*
X015684Y006723D01*
X014908Y007015D02*
X014621Y006684D01*
X018280Y012116D02*
X018280Y012380D01*
X015080Y013880D02*
X015080Y014680D01*
D28*
X015908Y011465D02*
X016668Y011054D01*
X016847Y010961D01*
X017023Y010859D01*
X017193Y010748D01*
X017357Y010630D01*
X017516Y010503D01*
X017668Y010370D01*
X017814Y010229D01*
D29*
X016589Y008574D03*
X016412Y007274D03*
X016471Y004952D03*
X005408Y004952D03*
X004306Y007904D03*
M02*
