G75*
G70*
%OFA0B0*%
%FSLAX24Y24*%
%IPPOS*%
%LPD*%
%AMOC8*
5,1,8,0,0,1.08239X$1,22.5*
%
%ADD10C,0.0000*%
%ADD11C,0.0030*%
%ADD12C,0.0020*%
%ADD13C,0.0010*%
%ADD14C,0.0060*%
%ADD15C,0.0050*%
%ADD16C,0.0100*%
D10*
X002337Y003180D02*
X002337Y003180D01*
X002180Y003337D01*
X002180Y003338D02*
X002180Y020778D01*
X002337Y020936D01*
X021708Y020936D01*
X021865Y020778D01*
X021865Y003337D01*
X021865Y003337D01*
X021708Y003180D01*
X021707Y003180D02*
X002337Y003180D01*
D11*
X002471Y005124D02*
X002471Y005414D01*
X002616Y005414D01*
X002664Y005366D01*
X002664Y005269D01*
X002616Y005221D01*
X002471Y005221D01*
X002567Y005221D02*
X002664Y005124D01*
X002862Y005124D02*
X002862Y005414D01*
X002765Y005414D02*
X002959Y005414D01*
X003060Y005366D02*
X003060Y005318D01*
X003108Y005269D01*
X003205Y005269D01*
X003253Y005221D01*
X003253Y005173D01*
X003205Y005124D01*
X003108Y005124D01*
X003060Y005173D01*
X003060Y005366D02*
X003108Y005414D01*
X003205Y005414D01*
X003253Y005366D01*
X003355Y005124D02*
X003548Y005414D01*
X003649Y005414D02*
X003794Y005414D01*
X003843Y005366D01*
X003843Y005173D01*
X003794Y005124D01*
X003649Y005124D01*
X003649Y005414D01*
X003944Y005414D02*
X004137Y005414D01*
X004041Y005414D02*
X004041Y005124D01*
X004239Y005124D02*
X004239Y005414D01*
X004384Y005414D01*
X004432Y005366D01*
X004432Y005269D01*
X004384Y005221D01*
X004239Y005221D01*
X004335Y005221D02*
X004432Y005124D01*
X004553Y006126D02*
X004553Y006417D01*
X004698Y006417D01*
X004747Y006368D01*
X004747Y006272D01*
X004698Y006223D01*
X004553Y006223D01*
X004650Y006223D02*
X004747Y006126D01*
X004848Y006175D02*
X004896Y006126D01*
X004993Y006126D01*
X005041Y006175D01*
X005041Y006223D01*
X004993Y006272D01*
X004896Y006272D01*
X004848Y006320D01*
X004848Y006368D01*
X004896Y006417D01*
X004993Y006417D01*
X005041Y006368D01*
X005143Y006417D02*
X005336Y006417D01*
X005239Y006417D02*
X005239Y006126D01*
X005703Y006130D02*
X005848Y006130D01*
X005896Y006178D01*
X005896Y006372D01*
X005848Y006420D01*
X005703Y006420D01*
X005703Y006130D01*
X005998Y006178D02*
X005998Y006372D01*
X006046Y006420D01*
X006143Y006420D01*
X006191Y006372D01*
X005998Y006178D01*
X006046Y006130D01*
X006143Y006130D01*
X006191Y006178D01*
X006191Y006372D01*
X006687Y006420D02*
X006687Y006130D01*
X006832Y006130D01*
X006881Y006178D01*
X006881Y006372D01*
X006832Y006420D01*
X006687Y006420D01*
X006982Y006323D02*
X007079Y006420D01*
X007079Y006130D01*
X007175Y006130D02*
X006982Y006130D01*
X007689Y006130D02*
X007835Y006130D01*
X007883Y006178D01*
X007883Y006372D01*
X007835Y006420D01*
X007689Y006420D01*
X007689Y006130D01*
X007984Y006130D02*
X008178Y006323D01*
X008178Y006372D01*
X008129Y006420D01*
X008033Y006420D01*
X007984Y006372D01*
X007984Y006130D02*
X008178Y006130D01*
X008695Y006130D02*
X008840Y006130D01*
X008888Y006178D01*
X008888Y006372D01*
X008840Y006420D01*
X008695Y006420D01*
X008695Y006130D01*
X008990Y006178D02*
X009038Y006130D01*
X009135Y006130D01*
X009183Y006178D01*
X009183Y006226D01*
X009135Y006275D01*
X009086Y006275D01*
X009135Y006275D02*
X009183Y006323D01*
X009183Y006372D01*
X009135Y006420D01*
X009038Y006420D01*
X008990Y006372D01*
X009719Y006420D02*
X009719Y006130D01*
X009864Y006130D01*
X009912Y006178D01*
X009912Y006372D01*
X009864Y006420D01*
X009719Y006420D01*
X010013Y006275D02*
X010207Y006275D01*
X010158Y006420D02*
X010013Y006275D01*
X010158Y006130D02*
X010158Y006420D01*
X010682Y006420D02*
X010682Y006130D01*
X010827Y006130D01*
X010875Y006178D01*
X010875Y006372D01*
X010827Y006420D01*
X010682Y006420D01*
X010976Y006420D02*
X010976Y006275D01*
X011073Y006323D01*
X011121Y006323D01*
X011170Y006275D01*
X011170Y006178D01*
X011121Y006130D01*
X011025Y006130D01*
X010976Y006178D01*
X010976Y006420D02*
X011170Y006420D01*
X011687Y006420D02*
X011687Y006130D01*
X011832Y006130D01*
X011881Y006178D01*
X011881Y006372D01*
X011832Y006420D01*
X011687Y006420D01*
X011982Y006275D02*
X012127Y006275D01*
X012175Y006226D01*
X012175Y006178D01*
X012127Y006130D01*
X012030Y006130D01*
X011982Y006178D01*
X011982Y006275D01*
X012079Y006372D01*
X012175Y006420D01*
X012750Y006420D02*
X012750Y006130D01*
X012895Y006130D01*
X012944Y006178D01*
X012944Y006372D01*
X012895Y006420D01*
X012750Y006420D01*
X013045Y006420D02*
X013238Y006420D01*
X013238Y006372D01*
X013045Y006178D01*
X013045Y006130D01*
X013695Y006130D02*
X013840Y006130D01*
X013888Y006178D01*
X013888Y006372D01*
X013840Y006420D01*
X013695Y006420D01*
X013695Y006130D01*
X013990Y006178D02*
X013990Y006226D01*
X014038Y006275D01*
X014135Y006275D01*
X014183Y006226D01*
X014183Y006178D01*
X014135Y006130D01*
X014038Y006130D01*
X013990Y006178D01*
X014038Y006275D02*
X013990Y006323D01*
X013990Y006372D01*
X014038Y006420D01*
X014135Y006420D01*
X014183Y006372D01*
X014183Y006323D01*
X014135Y006275D01*
X014679Y006420D02*
X014679Y006130D01*
X014824Y006130D01*
X014873Y006178D01*
X014873Y006372D01*
X014824Y006420D01*
X014679Y006420D01*
X014974Y006372D02*
X014974Y006323D01*
X015022Y006275D01*
X015167Y006275D01*
X015167Y006178D02*
X015167Y006372D01*
X015119Y006420D01*
X015022Y006420D01*
X014974Y006372D01*
X014974Y006178D02*
X015022Y006130D01*
X015119Y006130D01*
X015167Y006178D01*
X015545Y006178D02*
X015545Y006372D01*
X015594Y006420D01*
X015691Y006420D01*
X015739Y006372D01*
X015739Y006275D02*
X015642Y006275D01*
X015739Y006275D02*
X015739Y006178D01*
X015691Y006130D01*
X015594Y006130D01*
X015545Y006178D01*
X015840Y006130D02*
X015840Y006420D01*
X016034Y006130D01*
X016034Y006420D01*
X016135Y006420D02*
X016280Y006420D01*
X016328Y006372D01*
X016328Y006178D01*
X016280Y006130D01*
X016135Y006130D01*
X016135Y006420D01*
X017081Y005894D02*
X017371Y005894D01*
X017371Y005793D02*
X017371Y005648D01*
X017323Y005599D01*
X017226Y005599D01*
X017178Y005648D01*
X017178Y005793D01*
X017226Y005894D02*
X017178Y005942D01*
X017178Y006039D01*
X017226Y006088D01*
X017371Y006088D01*
X017533Y006157D02*
X017581Y006157D01*
X017678Y006157D02*
X017871Y006157D01*
X017871Y006109D02*
X017871Y006206D01*
X017871Y006305D02*
X017678Y006305D01*
X017678Y006451D01*
X017726Y006499D01*
X017871Y006499D01*
X017823Y006600D02*
X017726Y006600D01*
X017678Y006649D01*
X017678Y006745D01*
X017726Y006794D01*
X017823Y006794D01*
X017871Y006745D01*
X017871Y006649D01*
X017823Y006600D01*
X017678Y006157D02*
X017678Y006109D01*
X017678Y006008D02*
X017871Y006008D01*
X017871Y005863D01*
X017823Y005814D01*
X017678Y005814D01*
X017678Y005713D02*
X017678Y005568D01*
X017726Y005520D01*
X017823Y005520D01*
X017871Y005568D01*
X017871Y005713D01*
X017581Y005713D01*
X017678Y005419D02*
X017871Y005419D01*
X017871Y005273D01*
X017823Y005225D01*
X017678Y005225D01*
X017678Y005124D02*
X017871Y005124D01*
X017726Y005124D02*
X017726Y004930D01*
X017678Y004930D02*
X017581Y005027D01*
X017678Y005124D01*
X017678Y004930D02*
X017871Y004930D01*
X017371Y004909D02*
X017081Y004909D01*
X017178Y004812D01*
X017081Y004715D01*
X017371Y004715D01*
X017081Y005010D02*
X017081Y005204D01*
X017081Y005107D02*
X017371Y005107D01*
X017323Y005305D02*
X017226Y005305D01*
X017178Y005353D01*
X017178Y005450D01*
X017226Y005498D01*
X017275Y005498D01*
X017275Y005305D01*
X017323Y005305D02*
X017371Y005353D01*
X017371Y005450D01*
X019934Y005261D02*
X019934Y005068D01*
X020031Y004971D01*
X020127Y005068D01*
X020127Y005261D01*
X020228Y005165D02*
X020325Y005261D01*
X020325Y004971D01*
X020228Y004971D02*
X020422Y004971D01*
X020523Y004971D02*
X020571Y004971D01*
X020571Y005019D01*
X020523Y005019D01*
X020523Y004971D01*
X020670Y005019D02*
X020864Y005213D01*
X020864Y005019D01*
X020816Y004971D01*
X020719Y004971D01*
X020670Y005019D01*
X020670Y005213D01*
X020719Y005261D01*
X020816Y005261D01*
X020864Y005213D01*
X015881Y010582D02*
X015881Y010631D01*
X015881Y010727D02*
X015881Y010921D01*
X015929Y010921D02*
X015833Y010921D01*
X015733Y010921D02*
X015733Y010727D01*
X015588Y010727D01*
X015539Y010776D01*
X015539Y010921D01*
X015240Y010873D02*
X015191Y010921D01*
X015095Y010921D01*
X015046Y010873D01*
X015046Y010776D01*
X015095Y010727D01*
X015143Y010727D01*
X015240Y010776D01*
X015240Y010631D01*
X015046Y010631D01*
X014945Y010631D02*
X014945Y010824D01*
X014848Y010921D01*
X014752Y010824D01*
X014752Y010631D01*
X014374Y010631D02*
X014374Y010921D01*
X014229Y010921D01*
X014180Y010873D01*
X014180Y010679D01*
X014229Y010631D01*
X014374Y010631D01*
X014079Y010727D02*
X013982Y010631D01*
X013982Y010921D01*
X013886Y010921D02*
X014079Y010921D01*
X013784Y010873D02*
X013784Y010679D01*
X013736Y010631D01*
X013639Y010631D01*
X013591Y010679D01*
X013784Y010873D01*
X013736Y010921D01*
X013639Y010921D01*
X013591Y010873D01*
X013591Y010679D01*
X013271Y010631D02*
X013271Y010921D01*
X013126Y010921D01*
X013078Y010873D01*
X013078Y010679D01*
X013126Y010631D01*
X013271Y010631D01*
X012977Y010727D02*
X012880Y010631D01*
X012880Y010921D01*
X012977Y010921D02*
X012783Y010921D01*
X012682Y010921D02*
X012488Y010921D01*
X012585Y010921D02*
X012585Y010631D01*
X012682Y010727D01*
X012248Y010631D02*
X012103Y010631D01*
X012054Y010679D01*
X012054Y010873D01*
X012103Y010921D01*
X012248Y010921D01*
X012248Y010631D01*
X011953Y010727D02*
X011856Y010631D01*
X011856Y010921D01*
X011760Y010921D02*
X011953Y010921D01*
X011658Y010921D02*
X011465Y010727D01*
X011465Y010679D01*
X011513Y010631D01*
X011610Y010631D01*
X011658Y010679D01*
X011658Y010921D02*
X011465Y010921D01*
X011224Y010921D02*
X011224Y010631D01*
X011079Y010631D01*
X011031Y010679D01*
X011031Y010873D01*
X011079Y010921D01*
X011224Y010921D01*
X010929Y010921D02*
X010736Y010921D01*
X010833Y010921D02*
X010833Y010631D01*
X010929Y010727D01*
X010635Y010679D02*
X010586Y010631D01*
X010490Y010631D01*
X010441Y010679D01*
X010441Y010727D01*
X010490Y010776D01*
X010441Y010824D01*
X010441Y010873D01*
X010490Y010921D01*
X010586Y010921D01*
X010635Y010873D01*
X010538Y010776D02*
X010490Y010776D01*
X010122Y010776D02*
X009928Y010776D01*
X009928Y010727D02*
X009928Y010921D01*
X009827Y010873D02*
X009634Y010679D01*
X009634Y010873D01*
X009682Y010921D01*
X009779Y010921D01*
X009827Y010873D01*
X009827Y010679D01*
X009779Y010631D01*
X009682Y010631D01*
X009634Y010679D01*
X009928Y010727D02*
X010025Y010631D01*
X010122Y010727D01*
X010122Y010921D01*
X009098Y010921D02*
X009098Y010727D01*
X009001Y010631D01*
X008905Y010727D01*
X008905Y010921D01*
X008803Y010921D02*
X008610Y010921D01*
X008707Y010921D02*
X008707Y010631D01*
X008803Y010727D01*
X008905Y010776D02*
X009098Y010776D01*
X008114Y010776D02*
X007920Y010776D01*
X007920Y010727D02*
X007920Y010921D01*
X007819Y010921D02*
X007626Y010727D01*
X007626Y010679D01*
X007674Y010631D01*
X007771Y010631D01*
X007819Y010679D01*
X007920Y010727D02*
X008017Y010631D01*
X008114Y010727D01*
X008114Y010921D01*
X007819Y010921D02*
X007626Y010921D01*
X007090Y010921D02*
X007090Y010727D01*
X006993Y010631D01*
X006897Y010727D01*
X006897Y010921D01*
X006796Y010873D02*
X006747Y010921D01*
X006650Y010921D01*
X006602Y010873D01*
X006602Y010824D01*
X006650Y010776D01*
X006699Y010776D01*
X006650Y010776D02*
X006602Y010727D01*
X006602Y010679D01*
X006650Y010631D01*
X006747Y010631D01*
X006796Y010679D01*
X006897Y010776D02*
X007090Y010776D01*
X006106Y010776D02*
X005912Y010776D01*
X005912Y010727D02*
X005912Y010921D01*
X005811Y010776D02*
X005618Y010776D01*
X005666Y010921D02*
X005666Y010631D01*
X005811Y010776D01*
X005912Y010727D02*
X006009Y010631D01*
X006106Y010727D01*
X006106Y010921D01*
X005122Y010921D02*
X005122Y010727D01*
X005025Y010631D01*
X004928Y010727D01*
X004928Y010921D01*
X004827Y010873D02*
X004779Y010921D01*
X004682Y010921D01*
X004634Y010873D01*
X004634Y010776D01*
X004682Y010727D01*
X004730Y010727D01*
X004827Y010776D01*
X004827Y010631D01*
X004634Y010631D01*
X004928Y010776D02*
X005122Y010776D01*
X003253Y011708D02*
X003253Y011901D01*
X003205Y011950D01*
X003060Y011950D01*
X003060Y011660D01*
X003205Y011660D01*
X003253Y011708D01*
X002959Y011660D02*
X002959Y011950D01*
X002765Y011950D02*
X002959Y011660D01*
X002765Y011660D02*
X002765Y011950D01*
X002664Y011901D02*
X002616Y011950D01*
X002519Y011950D01*
X002471Y011901D01*
X002471Y011708D01*
X002519Y011660D01*
X002616Y011660D01*
X002664Y011708D01*
X002664Y011805D01*
X002567Y011805D01*
X002807Y015636D02*
X002759Y015684D01*
X002759Y015781D01*
X002807Y015829D01*
X002856Y015829D01*
X002856Y015636D01*
X002904Y015636D02*
X002807Y015636D01*
X002904Y015636D02*
X002952Y015684D01*
X002952Y015781D01*
X002952Y015931D02*
X002759Y015931D01*
X002759Y016076D01*
X002807Y016124D01*
X002952Y016124D01*
X002904Y016225D02*
X002952Y016274D01*
X002952Y016419D01*
X002759Y016419D02*
X002759Y016274D01*
X002807Y016225D01*
X002904Y016225D01*
X004316Y017386D02*
X004606Y017386D01*
X004606Y017289D02*
X004606Y017483D01*
X004412Y017289D02*
X004316Y017386D01*
X005812Y017338D02*
X005860Y017289D01*
X005812Y017338D02*
X005812Y017435D01*
X005860Y017483D01*
X005909Y017483D01*
X006102Y017289D01*
X006102Y017483D01*
X007347Y017435D02*
X007347Y017338D01*
X007396Y017289D01*
X007492Y017386D02*
X007492Y017435D01*
X007541Y017483D01*
X007589Y017483D01*
X007637Y017435D01*
X007637Y017338D01*
X007589Y017289D01*
X007492Y017435D02*
X007444Y017483D01*
X007396Y017483D01*
X007347Y017435D01*
X009198Y017513D02*
X009343Y017368D01*
X009343Y017562D01*
X009488Y017513D02*
X009198Y017513D01*
X010379Y017522D02*
X010379Y017329D01*
X010524Y017329D01*
X010475Y017426D01*
X010475Y017474D01*
X010524Y017522D01*
X010621Y017522D01*
X010669Y017474D01*
X010669Y017377D01*
X010621Y017329D01*
X011875Y017522D02*
X011923Y017426D01*
X012020Y017329D01*
X012020Y017474D01*
X012068Y017522D01*
X012117Y017522D01*
X012165Y017474D01*
X012165Y017377D01*
X012117Y017329D01*
X012020Y017329D01*
X013331Y017329D02*
X013331Y017522D01*
X013380Y017522D01*
X013573Y017329D01*
X013622Y017329D01*
X014543Y017106D02*
X014591Y017106D01*
X014688Y017106D02*
X014930Y017106D01*
X014978Y017058D01*
X014978Y017010D01*
X014882Y016909D02*
X014591Y016909D01*
X014688Y016909D02*
X014688Y016763D01*
X014736Y016715D01*
X014833Y016715D01*
X014882Y016763D01*
X014882Y016909D01*
X014882Y016614D02*
X014736Y016614D01*
X014688Y016566D01*
X014688Y016469D01*
X014785Y016469D02*
X014785Y016614D01*
X014882Y016614D02*
X014882Y016469D01*
X014833Y016420D01*
X014785Y016469D01*
X014833Y016025D02*
X014785Y015976D01*
X014785Y015880D01*
X014736Y015831D01*
X014688Y015880D01*
X014688Y016025D01*
X014833Y016025D02*
X014882Y015976D01*
X014882Y015831D01*
X014882Y015730D02*
X014882Y015585D01*
X014833Y015536D01*
X014785Y015585D01*
X014785Y015730D01*
X014736Y015730D02*
X014882Y015730D01*
X014736Y015730D02*
X014688Y015682D01*
X014688Y015585D01*
X014688Y015388D02*
X014882Y015388D01*
X014882Y015340D02*
X014882Y015437D01*
X014688Y015388D02*
X014688Y015340D01*
X014591Y015388D02*
X014543Y015388D01*
X014736Y015239D02*
X014688Y015191D01*
X014688Y015045D01*
X014591Y015045D02*
X014882Y015045D01*
X014882Y015191D01*
X014833Y015239D01*
X014736Y015239D01*
X016127Y010921D02*
X016031Y010824D01*
X016031Y010631D01*
X015929Y010727D02*
X015881Y010727D01*
X016127Y010921D02*
X016224Y010824D01*
X016224Y010631D01*
X020091Y014967D02*
X020187Y014967D01*
X020236Y015015D01*
X020236Y015160D01*
X020284Y015160D02*
X020042Y015160D01*
X020042Y015015D01*
X020091Y014967D01*
X020333Y015063D02*
X020333Y015112D01*
X020284Y015160D01*
X020236Y015261D02*
X020042Y015261D01*
X020042Y015406D01*
X020091Y015455D01*
X020236Y015455D01*
X020187Y015556D02*
X020091Y015556D01*
X020042Y015604D01*
X020042Y015749D01*
X019946Y015749D02*
X020236Y015749D01*
X020236Y015604D01*
X020187Y015556D01*
X020187Y016145D02*
X020139Y016194D01*
X020139Y016339D01*
X020091Y016339D02*
X020236Y016339D01*
X020236Y016194D01*
X020187Y016145D01*
X020042Y016194D02*
X020042Y016290D01*
X020091Y016339D01*
X020091Y016440D02*
X020042Y016488D01*
X020042Y016633D01*
X019946Y016633D02*
X020236Y016633D01*
X020236Y016488D01*
X020187Y016440D01*
X020091Y016440D01*
X020333Y016735D02*
X020333Y016783D01*
X020284Y016831D01*
X020042Y016831D01*
X019946Y016831D02*
X019897Y016831D01*
X020175Y020242D02*
X020175Y020532D01*
X020030Y020387D01*
X020223Y020387D01*
X020324Y020387D02*
X020469Y020387D01*
X020518Y020339D01*
X020518Y020291D01*
X020469Y020242D01*
X020373Y020242D01*
X020324Y020291D01*
X020324Y020387D01*
X020421Y020484D01*
X020518Y020532D01*
X020619Y020484D02*
X020667Y020532D01*
X020764Y020532D01*
X020812Y020484D01*
X020812Y020436D01*
X020619Y020242D01*
X020812Y020242D01*
X020914Y020291D02*
X021107Y020484D01*
X021107Y020291D01*
X021059Y020242D01*
X020962Y020242D01*
X020914Y020291D01*
X020914Y020484D01*
X020962Y020532D01*
X021059Y020532D01*
X021107Y020484D01*
X021208Y020484D02*
X021208Y020436D01*
X021257Y020387D01*
X021402Y020387D01*
X021402Y020291D02*
X021402Y020484D01*
X021353Y020532D01*
X021257Y020532D01*
X021208Y020484D01*
X021208Y020291D02*
X021257Y020242D01*
X021353Y020242D01*
X021402Y020291D01*
D12*
X013154Y012186D02*
X013154Y012039D01*
X013118Y012039D01*
X013081Y012076D01*
X013044Y012039D01*
X013007Y012076D01*
X013007Y012186D01*
X013081Y012186D02*
X013081Y012076D01*
X012933Y012076D02*
X012933Y012149D01*
X012897Y012186D01*
X012823Y012186D01*
X012786Y012149D01*
X012786Y012076D01*
X012823Y012039D01*
X012897Y012039D01*
X012933Y012076D01*
X012712Y012076D02*
X012676Y012039D01*
X012565Y012039D01*
X012491Y012039D02*
X012455Y012039D01*
X012455Y012186D01*
X012491Y012186D02*
X012418Y012186D01*
X012565Y012149D02*
X012602Y012112D01*
X012676Y012112D01*
X012712Y012076D01*
X012712Y012186D02*
X012602Y012186D01*
X012565Y012149D01*
X012455Y011966D02*
X012455Y011929D01*
X012249Y012039D02*
X012249Y012186D01*
X012175Y012186D02*
X012175Y012076D01*
X012139Y012039D01*
X012102Y012076D01*
X012102Y012186D01*
X012028Y012186D02*
X011954Y012186D01*
X011991Y012186D02*
X011991Y012039D01*
X012028Y012039D01*
X011991Y011966D02*
X011991Y011929D01*
X011844Y012039D02*
X011880Y012076D01*
X011844Y012112D01*
X011770Y012112D01*
X011734Y012149D01*
X011770Y012186D01*
X011880Y012186D01*
X011844Y012039D02*
X011734Y012039D01*
X011659Y012076D02*
X011659Y012149D01*
X011623Y012186D01*
X011549Y012186D01*
X011513Y012149D01*
X011513Y012076D01*
X011549Y012039D01*
X011623Y012039D01*
X011659Y012076D01*
X012175Y012076D02*
X012212Y012039D01*
X012249Y012039D01*
X010950Y012076D02*
X010913Y012039D01*
X010803Y012039D01*
X010839Y012112D02*
X010913Y012112D01*
X010950Y012076D01*
X010950Y012186D02*
X010839Y012186D01*
X010803Y012149D01*
X010839Y012112D01*
X010729Y012076D02*
X010729Y012149D01*
X010692Y012186D01*
X010582Y012186D01*
X010508Y012186D02*
X010508Y011966D01*
X010582Y012039D02*
X010692Y012039D01*
X010729Y012076D01*
X010508Y012112D02*
X010397Y012039D01*
X010508Y012112D02*
X010397Y012186D01*
X013174Y010578D02*
X013321Y010431D01*
X013248Y010431D02*
X013248Y010578D01*
X013321Y010578D02*
X013174Y010431D01*
X013174Y010505D02*
X013321Y010505D01*
X014427Y010542D02*
X014574Y010395D01*
X014574Y010468D02*
X014427Y010468D01*
X014427Y010395D02*
X014574Y010542D01*
X014501Y010542D02*
X014501Y010395D01*
X014501Y010616D02*
X014501Y010763D01*
X014574Y010763D02*
X014427Y010616D01*
X014427Y010689D02*
X014574Y010689D01*
X014574Y010616D02*
X014427Y010763D01*
X017014Y011092D02*
X017251Y011092D01*
X017251Y011013D02*
X017251Y011171D01*
X017211Y011249D02*
X017251Y011288D01*
X017251Y011367D01*
X017211Y011406D01*
X017054Y011406D01*
X017211Y011249D01*
X017054Y011249D01*
X017014Y011288D01*
X017014Y011367D01*
X017054Y011406D01*
X017093Y011485D02*
X017211Y011485D01*
X017251Y011524D01*
X017251Y011642D01*
X017093Y011642D01*
X017132Y011720D02*
X017132Y011799D01*
X017014Y011720D02*
X017014Y011878D01*
X017014Y011720D02*
X017251Y011720D01*
X017014Y011092D02*
X017093Y011013D01*
X020818Y008093D02*
X020897Y008172D01*
X020897Y007936D01*
X020818Y007936D02*
X020976Y007936D01*
X021054Y007975D02*
X021211Y008133D01*
X021211Y007975D01*
X021172Y007936D01*
X021093Y007936D01*
X021054Y007975D01*
X021054Y008133D01*
X021093Y008172D01*
X021172Y008172D01*
X021211Y008133D01*
X021290Y008093D02*
X021290Y007975D01*
X021329Y007936D01*
X021447Y007936D01*
X021447Y008093D01*
X021525Y008054D02*
X021604Y008054D01*
X021525Y007936D02*
X021525Y008172D01*
X021683Y008172D01*
X014614Y006707D02*
X014467Y006561D01*
X014467Y006634D02*
X014614Y006634D01*
X014614Y006561D02*
X014467Y006707D01*
X014540Y006707D02*
X014540Y006561D01*
X014540Y006486D02*
X014540Y006340D01*
X014467Y006340D02*
X014614Y006486D01*
X014614Y006413D02*
X014467Y006413D01*
X014467Y006486D02*
X014614Y006340D01*
X011619Y006413D02*
X011545Y006340D01*
X011472Y006340D01*
X011399Y006413D01*
X011435Y006487D02*
X011582Y006634D01*
X011509Y006634D02*
X011509Y006487D01*
X011582Y006487D02*
X011435Y006634D01*
X011435Y006560D02*
X011582Y006560D01*
X011619Y006708D02*
X011545Y006781D01*
X011472Y006781D01*
X011399Y006708D01*
X010635Y006708D02*
X010561Y006781D01*
X010488Y006781D01*
X010414Y006708D01*
X010451Y006634D02*
X010598Y006487D01*
X010598Y006560D02*
X010451Y006560D01*
X010451Y006487D02*
X010598Y006634D01*
X010524Y006634D02*
X010524Y006487D01*
X010414Y006413D02*
X010488Y006340D01*
X010561Y006340D01*
X010635Y006413D01*
X009196Y005024D02*
X009123Y004951D01*
X009049Y004951D02*
X008976Y004951D01*
X009012Y004988D02*
X009012Y004841D01*
X009049Y004804D01*
X009123Y004804D02*
X009270Y004804D01*
X009196Y004804D02*
X009196Y005024D01*
X008901Y004914D02*
X008901Y004804D01*
X008901Y004914D02*
X008865Y004951D01*
X008755Y004951D01*
X008755Y004804D01*
X008681Y004804D02*
X008607Y004804D01*
X008644Y004804D02*
X008644Y004951D01*
X008607Y004951D01*
X008644Y005024D02*
X008644Y005061D01*
X008246Y004988D02*
X008099Y004841D01*
X008136Y004804D01*
X008209Y004804D01*
X008246Y004841D01*
X008246Y004988D01*
X008209Y005024D01*
X008136Y005024D01*
X008099Y004988D01*
X008099Y004841D01*
X008025Y004804D02*
X007989Y004841D01*
X007989Y004988D01*
X008025Y004951D02*
X007952Y004951D01*
X007878Y004914D02*
X007878Y004804D01*
X007878Y004914D02*
X007841Y004951D01*
X007731Y004951D01*
X007731Y004804D01*
X007657Y004804D02*
X007584Y004804D01*
X007620Y004804D02*
X007620Y004951D01*
X007584Y004951D01*
X007620Y005024D02*
X007620Y005061D01*
X007051Y004951D02*
X006904Y004804D01*
X006830Y004804D02*
X006794Y004841D01*
X006794Y004988D01*
X006830Y004951D02*
X006757Y004951D01*
X006904Y004951D02*
X007051Y004804D01*
X006064Y004804D02*
X005917Y004951D01*
X005843Y004951D02*
X005807Y004951D01*
X005733Y004878D01*
X005733Y004951D02*
X005733Y004804D01*
X005917Y004804D02*
X006064Y004951D01*
X008529Y006455D02*
X008675Y006602D01*
X008602Y006602D02*
X008602Y006455D01*
X008675Y006455D02*
X008529Y006602D01*
X008529Y006528D02*
X008675Y006528D01*
X006801Y008179D02*
X006683Y008257D01*
X006801Y008336D01*
X006683Y008415D02*
X006683Y008179D01*
X006605Y008218D02*
X006566Y008179D01*
X006487Y008179D01*
X006448Y008218D01*
X006605Y008375D01*
X006605Y008218D01*
X006448Y008218D02*
X006448Y008375D01*
X006487Y008415D01*
X006566Y008415D01*
X006605Y008375D01*
X006370Y008179D02*
X006212Y008179D01*
X006291Y008179D02*
X006291Y008415D01*
X006212Y008336D01*
X007872Y008842D02*
X007911Y008842D01*
X007911Y008881D01*
X007872Y008881D01*
X007872Y008842D01*
X007989Y008842D02*
X008147Y008842D01*
X008068Y008842D02*
X008068Y009078D01*
X007989Y008999D01*
X008225Y008999D02*
X008225Y008881D01*
X008264Y008842D01*
X008382Y008842D01*
X008382Y008999D01*
X008461Y008960D02*
X008539Y008960D01*
X008461Y009078D02*
X008618Y009078D01*
X008461Y009078D02*
X008461Y008842D01*
X010679Y008490D02*
X010718Y008490D01*
X010718Y008451D01*
X010679Y008451D01*
X010679Y008490D01*
X010796Y008451D02*
X010954Y008451D01*
X010875Y008451D02*
X010875Y008687D01*
X010796Y008608D01*
X011032Y008608D02*
X011032Y008490D01*
X011071Y008451D01*
X011190Y008451D01*
X011190Y008608D01*
X011268Y008569D02*
X011346Y008569D01*
X011268Y008451D02*
X011268Y008687D01*
X011425Y008687D01*
X006225Y012076D02*
X006188Y012039D01*
X006078Y012039D01*
X006115Y012112D02*
X006188Y012112D01*
X006225Y012076D01*
X006225Y012186D02*
X006115Y012186D01*
X006078Y012149D01*
X006115Y012112D01*
X006004Y012076D02*
X005967Y012039D01*
X005857Y012039D01*
X005857Y011966D02*
X005857Y012186D01*
X005967Y012186D01*
X006004Y012149D01*
X006004Y012076D01*
X005783Y012149D02*
X005746Y012112D01*
X005636Y012112D01*
X005636Y012076D02*
X005636Y012186D01*
X005746Y012186D01*
X005783Y012149D01*
X005746Y012039D02*
X005673Y012039D01*
X005636Y012076D01*
X005005Y012076D02*
X004968Y012039D01*
X004858Y012039D01*
X004895Y012112D02*
X004968Y012112D01*
X005005Y012076D01*
X005005Y012186D02*
X004895Y012186D01*
X004858Y012149D01*
X004895Y012112D01*
X004784Y012076D02*
X004784Y012149D01*
X004747Y012186D01*
X004637Y012186D01*
X004563Y012186D02*
X004489Y012186D01*
X004526Y012186D02*
X004526Y011966D01*
X004563Y011966D01*
X004637Y012039D02*
X004747Y012039D01*
X004784Y012076D01*
D13*
X007946Y017630D02*
X007971Y017630D01*
X007971Y017655D01*
X007946Y017655D01*
X007946Y017630D01*
X008019Y017630D02*
X008119Y017630D01*
X008069Y017630D02*
X008069Y017780D01*
X008019Y017730D01*
X008314Y017730D02*
X008314Y017655D01*
X008339Y017630D01*
X008414Y017630D01*
X008414Y017730D01*
X008461Y017705D02*
X008511Y017705D01*
X008461Y017630D02*
X008461Y017780D01*
X008561Y017780D01*
X014272Y014742D02*
X014322Y014792D01*
X014322Y014642D01*
X014272Y014642D02*
X014372Y014642D01*
X014419Y014642D02*
X014419Y014792D01*
X014494Y014742D02*
X014419Y014692D01*
X014494Y014642D01*
X015652Y015722D02*
X015752Y015722D01*
X015799Y015722D02*
X015799Y015872D01*
X015874Y015822D02*
X015799Y015772D01*
X015874Y015722D01*
X015702Y015722D02*
X015702Y015872D01*
X015652Y015822D01*
X017072Y014068D02*
X017122Y013993D01*
X017172Y014068D01*
X017172Y013993D02*
X017021Y013993D01*
X017047Y013946D02*
X017147Y013846D01*
X017172Y013871D01*
X017172Y013921D01*
X017147Y013946D01*
X017047Y013946D01*
X017021Y013921D01*
X017021Y013871D01*
X017047Y013846D01*
X017147Y013846D01*
X017172Y013798D02*
X017172Y013698D01*
X017172Y013748D02*
X017021Y013748D01*
X017072Y013698D01*
X017750Y013862D02*
X017900Y013862D01*
X017900Y013812D02*
X017900Y013912D01*
X017875Y013959D02*
X017775Y014059D01*
X017875Y014059D01*
X017900Y014034D01*
X017900Y013984D01*
X017875Y013959D01*
X017775Y013959D01*
X017750Y013984D01*
X017750Y014034D01*
X017775Y014059D01*
X017750Y014106D02*
X017900Y014106D01*
X017850Y014106D02*
X017800Y014181D01*
X017850Y014106D02*
X017900Y014181D01*
X017750Y013862D02*
X017800Y013812D01*
X018971Y015649D02*
X019071Y015649D01*
X019118Y015649D02*
X019118Y015799D01*
X019193Y015749D02*
X019118Y015699D01*
X019193Y015649D01*
X019021Y015649D02*
X019021Y015799D01*
X018971Y015749D01*
X020413Y014663D02*
X020463Y014713D01*
X020463Y014563D01*
X020413Y014563D02*
X020513Y014563D01*
X020561Y014563D02*
X020561Y014713D01*
X020636Y014663D02*
X020561Y014613D01*
X020636Y014563D01*
X015125Y019385D02*
X015125Y019410D01*
X015100Y019410D01*
X015100Y019385D01*
X015125Y019385D01*
X015125Y019459D02*
X015125Y019559D01*
X015125Y019509D02*
X014975Y019509D01*
X015025Y019459D01*
X015025Y019753D02*
X015100Y019753D01*
X015125Y019778D01*
X015125Y019853D01*
X015025Y019853D01*
X015050Y019901D02*
X015050Y019951D01*
X014975Y019901D02*
X014975Y020001D01*
X014975Y019901D02*
X015125Y019901D01*
X021419Y004046D02*
X021519Y003946D01*
X021544Y003971D01*
X021544Y004021D01*
X021519Y004046D01*
X021419Y004046D01*
X021394Y004021D01*
X021394Y003971D01*
X021419Y003946D01*
X021519Y003946D01*
X021519Y003899D02*
X021544Y003874D01*
X021544Y003823D01*
X021519Y003798D01*
X021419Y003899D01*
X021519Y003899D01*
X021419Y003899D02*
X021394Y003874D01*
X021394Y003823D01*
X021419Y003798D01*
X021519Y003798D01*
X021544Y003751D02*
X021544Y003651D01*
X021544Y003701D02*
X021394Y003701D01*
X021444Y003651D01*
D14*
X021314Y003810D02*
X021314Y004282D01*
X020684Y004282D02*
X020684Y003810D01*
X017408Y007365D02*
X017408Y009665D01*
X016882Y013574D02*
X016882Y014047D01*
X016252Y014047D02*
X016252Y013574D01*
X016283Y014952D02*
X015811Y014952D01*
X015811Y015582D02*
X016283Y015582D01*
X017980Y014060D02*
X017980Y013588D01*
X018610Y013588D02*
X018610Y014060D01*
X018600Y014939D02*
X019072Y014939D01*
X019072Y015569D02*
X018600Y015569D01*
X014895Y019544D02*
X014895Y020016D01*
X014265Y020016D02*
X014265Y019544D01*
X008676Y017550D02*
X008204Y017550D01*
X008204Y016920D02*
X008676Y016920D01*
X007573Y009657D02*
X007258Y009657D01*
X006549Y009657D02*
X006234Y009657D01*
X005565Y009657D02*
X005250Y009657D01*
X004581Y009657D02*
X004266Y009657D01*
X003557Y009665D02*
X003408Y009665D01*
X003408Y008915D01*
X003447Y008913D01*
X003486Y008907D01*
X003524Y008898D01*
X003561Y008885D01*
X003597Y008868D01*
X003630Y008848D01*
X003662Y008824D01*
X003691Y008798D01*
X003717Y008769D01*
X003741Y008737D01*
X003761Y008704D01*
X003778Y008668D01*
X003791Y008631D01*
X003800Y008593D01*
X003806Y008554D01*
X003808Y008515D01*
X003806Y008476D01*
X003800Y008437D01*
X003791Y008399D01*
X003778Y008362D01*
X003761Y008326D01*
X003741Y008293D01*
X003717Y008261D01*
X003691Y008232D01*
X003662Y008206D01*
X003630Y008182D01*
X003597Y008162D01*
X003561Y008145D01*
X003524Y008132D01*
X003486Y008123D01*
X003447Y008117D01*
X003408Y008115D01*
X003408Y007365D01*
X003557Y007365D01*
X005176Y008101D02*
X005649Y008101D01*
X005649Y008731D02*
X005176Y008731D01*
X008641Y008734D02*
X009113Y008734D01*
X009113Y008104D02*
X008641Y008104D01*
X012066Y008356D02*
X012538Y008356D01*
X012538Y008986D02*
X012066Y008986D01*
D15*
X012258Y009657D02*
X012573Y009657D01*
X013242Y009657D02*
X013557Y009657D01*
X014266Y009657D02*
X014541Y009657D01*
X015250Y009657D02*
X015565Y009657D01*
X016274Y009657D02*
X016549Y009657D01*
X017258Y009657D02*
X017415Y009657D01*
X018020Y008515D02*
X018020Y005798D01*
X018022Y005737D01*
X018028Y005677D01*
X018037Y005617D01*
X018051Y005558D01*
X018068Y005500D01*
X018089Y005443D01*
X018114Y005388D01*
X018142Y005334D01*
X018173Y005282D01*
X018208Y005233D01*
X018245Y005185D01*
X018286Y005141D01*
X018330Y005098D01*
X018376Y005059D01*
X018424Y005023D01*
X018475Y004990D01*
X018528Y004960D01*
X018582Y004934D01*
X018639Y004911D01*
X018696Y004892D01*
X018755Y004877D01*
X018814Y004865D01*
X018874Y004857D01*
X018935Y004853D01*
X018995Y004853D01*
X019056Y004857D01*
X019116Y004865D01*
X019175Y004877D01*
X019234Y004892D01*
X019291Y004911D01*
X019348Y004934D01*
X019402Y004960D01*
X019455Y004990D01*
X019506Y005023D01*
X019554Y005059D01*
X019600Y005098D01*
X019644Y005141D01*
X019685Y005185D01*
X019722Y005233D01*
X019757Y005282D01*
X019788Y005334D01*
X019816Y005388D01*
X019841Y005443D01*
X019862Y005500D01*
X019879Y005558D01*
X019893Y005617D01*
X019902Y005677D01*
X019908Y005737D01*
X019910Y005798D01*
X019910Y008475D01*
X019908Y008536D01*
X019902Y008596D01*
X019893Y008656D01*
X019879Y008715D01*
X019862Y008773D01*
X019841Y008830D01*
X019816Y008885D01*
X019788Y008939D01*
X019757Y008991D01*
X019722Y009040D01*
X019685Y009088D01*
X019644Y009132D01*
X019600Y009175D01*
X019554Y009214D01*
X019506Y009250D01*
X019455Y009283D01*
X019402Y009313D01*
X019348Y009339D01*
X019291Y009362D01*
X019234Y009381D01*
X019175Y009396D01*
X019116Y009408D01*
X019056Y009416D01*
X018995Y009420D01*
X018935Y009420D01*
X018874Y009416D01*
X018814Y009408D01*
X018755Y009396D01*
X018696Y009381D01*
X018639Y009362D01*
X018582Y009339D01*
X018528Y009313D01*
X018475Y009283D01*
X018424Y009250D01*
X018376Y009214D01*
X018330Y009175D01*
X018286Y009132D01*
X018245Y009088D01*
X018208Y009040D01*
X018173Y008991D01*
X018142Y008939D01*
X018114Y008885D01*
X018089Y008830D01*
X018068Y008773D01*
X018051Y008715D01*
X018037Y008656D01*
X018028Y008596D01*
X018022Y008536D01*
X018020Y008475D01*
X017376Y007374D02*
X017258Y007374D01*
X016549Y007374D02*
X016274Y007374D01*
X015565Y007374D02*
X015250Y007374D01*
X014581Y007374D02*
X014266Y007374D01*
X013557Y007374D02*
X013282Y007374D01*
X012573Y007374D02*
X012258Y007374D01*
X011549Y007374D02*
X011234Y007374D01*
X010565Y007374D02*
X010250Y007374D01*
X009581Y007374D02*
X009266Y007374D01*
X008557Y007374D02*
X008242Y007374D01*
X007573Y007374D02*
X007258Y007374D01*
X006549Y007374D02*
X006274Y007374D01*
X005565Y007374D02*
X005250Y007374D01*
X004541Y007374D02*
X004266Y007374D01*
X004070Y004912D02*
X002928Y004912D01*
X002574Y004400D02*
X002574Y004243D01*
X002928Y003731D02*
X004070Y003731D01*
X004070Y003889D01*
X004070Y004676D02*
X004070Y004912D01*
X003928Y003896D02*
X003895Y003855D01*
X003858Y003816D01*
X003819Y003780D01*
X003777Y003747D01*
X003733Y003718D01*
X003686Y003691D01*
X003639Y003668D01*
X003589Y003648D01*
X003538Y003632D01*
X003486Y003620D01*
X003434Y003612D01*
X003381Y003607D01*
X003328Y003606D01*
X003275Y003609D01*
X003222Y003616D01*
X003170Y003627D01*
X003118Y003641D01*
X003068Y003659D01*
X003020Y003681D01*
X002973Y003706D01*
X002928Y003734D01*
X002927Y004913D02*
X002971Y004940D01*
X003016Y004964D01*
X003063Y004984D01*
X003111Y005001D01*
X003161Y005014D01*
X003211Y005024D01*
X003262Y005030D01*
X003313Y005033D01*
X003364Y005032D01*
X003415Y005027D01*
X003465Y005018D01*
X003515Y005006D01*
X003564Y004991D01*
X003611Y004971D01*
X003657Y004949D01*
X003701Y004923D01*
X003743Y004894D01*
X003783Y004862D01*
X003821Y004828D01*
X003856Y004790D01*
X003888Y004751D01*
X003918Y004709D01*
X003944Y004665D01*
X008282Y009657D02*
X008557Y009657D01*
X009266Y009657D02*
X009541Y009657D01*
X010250Y009657D02*
X010565Y009657D01*
X011274Y009657D02*
X011549Y009657D01*
X014148Y013241D02*
X014148Y013477D01*
X014148Y013241D02*
X015289Y013241D01*
X015644Y013752D02*
X015644Y013910D01*
X015289Y014422D02*
X014148Y014422D01*
X014148Y014264D01*
X014289Y014256D02*
X014322Y014297D01*
X014359Y014336D01*
X014398Y014372D01*
X014440Y014405D01*
X014484Y014434D01*
X014531Y014461D01*
X014578Y014484D01*
X014628Y014504D01*
X014679Y014520D01*
X014731Y014532D01*
X014783Y014540D01*
X014836Y014545D01*
X014889Y014546D01*
X014942Y014543D01*
X014995Y014536D01*
X015047Y014525D01*
X015099Y014511D01*
X015149Y014493D01*
X015197Y014471D01*
X015244Y014446D01*
X015289Y014418D01*
X015290Y013240D02*
X015246Y013213D01*
X015201Y013189D01*
X015154Y013169D01*
X015106Y013152D01*
X015056Y013139D01*
X015006Y013129D01*
X014955Y013123D01*
X014904Y013120D01*
X014853Y013121D01*
X014802Y013126D01*
X014752Y013135D01*
X014702Y013147D01*
X014653Y013162D01*
X014606Y013182D01*
X014560Y013204D01*
X014516Y013230D01*
X014474Y013259D01*
X014434Y013291D01*
X014396Y013325D01*
X014361Y013363D01*
X014329Y013402D01*
X014299Y013444D01*
X014273Y013488D01*
X019178Y013774D02*
X019178Y013932D01*
X019533Y014444D02*
X020674Y014444D01*
X020674Y014208D01*
X020533Y013428D02*
X020500Y013387D01*
X020463Y013348D01*
X020424Y013312D01*
X020382Y013279D01*
X020338Y013250D01*
X020291Y013223D01*
X020244Y013200D01*
X020194Y013180D01*
X020143Y013164D01*
X020091Y013152D01*
X020039Y013144D01*
X019986Y013139D01*
X019933Y013138D01*
X019880Y013141D01*
X019827Y013148D01*
X019775Y013159D01*
X019723Y013173D01*
X019673Y013191D01*
X019625Y013213D01*
X019578Y013238D01*
X019533Y013266D01*
X019533Y013263D02*
X020674Y013263D01*
X020674Y013420D01*
X020549Y014196D02*
X020523Y014240D01*
X020493Y014282D01*
X020461Y014321D01*
X020426Y014359D01*
X020388Y014393D01*
X020348Y014425D01*
X020306Y014454D01*
X020262Y014480D01*
X020216Y014502D01*
X020169Y014522D01*
X020120Y014537D01*
X020070Y014549D01*
X020020Y014558D01*
X019969Y014563D01*
X019918Y014564D01*
X019867Y014561D01*
X019816Y014555D01*
X019766Y014545D01*
X019716Y014532D01*
X019668Y014515D01*
X019621Y014495D01*
X019576Y014471D01*
X019532Y014444D01*
X019513Y012017D02*
X020734Y012017D01*
X020734Y009497D01*
X019513Y009497D01*
X019513Y012017D01*
D16*
X010684Y012683D02*
X009188Y012683D01*
X009188Y013116D02*
X009188Y013156D01*
X009188Y013628D02*
X009188Y013667D01*
X009188Y014140D02*
X009188Y014179D01*
X009188Y014652D02*
X009188Y014691D01*
X009188Y015124D02*
X009188Y015163D01*
X009188Y015636D02*
X009188Y015675D01*
X009188Y016148D02*
X009188Y016187D01*
X009188Y016620D02*
X010684Y016620D01*
X010684Y016187D02*
X010684Y016148D01*
X010684Y015675D02*
X010684Y015636D01*
X010684Y015163D02*
X010684Y015124D01*
X010684Y014652D02*
X010684Y014612D01*
X010684Y014179D02*
X010684Y014140D01*
X010684Y013667D02*
X010684Y013628D01*
X010684Y013156D02*
X010684Y013116D01*
X009503Y016266D02*
X009505Y016293D01*
X009511Y016320D01*
X009520Y016346D01*
X009533Y016370D01*
X009549Y016393D01*
X009568Y016412D01*
X009590Y016429D01*
X009614Y016443D01*
X009639Y016453D01*
X009666Y016460D01*
X009693Y016463D01*
X009721Y016462D01*
X009748Y016457D01*
X009774Y016449D01*
X009798Y016437D01*
X009821Y016421D01*
X009842Y016403D01*
X009859Y016382D01*
X009874Y016358D01*
X009885Y016333D01*
X009893Y016307D01*
X009897Y016280D01*
X009897Y016252D01*
X009893Y016225D01*
X009885Y016199D01*
X009874Y016174D01*
X009859Y016150D01*
X009842Y016129D01*
X009821Y016111D01*
X009799Y016095D01*
X009774Y016083D01*
X009748Y016075D01*
X009721Y016070D01*
X009693Y016069D01*
X009666Y016072D01*
X009639Y016079D01*
X009614Y016089D01*
X009590Y016103D01*
X009568Y016120D01*
X009549Y016139D01*
X009533Y016162D01*
X009520Y016186D01*
X009511Y016212D01*
X009505Y016239D01*
X009503Y016266D01*
M02*
