G75*
G70*
%OFA0B0*%
%FSLAX24Y24*%
%IPPOS*%
%LPD*%
%AMOC8*
5,1,8,0,0,1.08239X$1,22.5*
%
%ADD10C,0.0000*%
%ADD11C,0.0631*%
%ADD12C,0.0700*%
%ADD13R,0.0946X0.0414*%
%ADD14R,0.0946X0.1320*%
%ADD15C,0.0780*%
%ADD16R,0.0434X0.0552*%
%ADD17R,0.0512X0.0512*%
%ADD18R,0.0749X0.0827*%
%ADD19R,0.0631X0.0670*%
%ADD20R,0.0906X0.0276*%
D10*
X002337Y003180D02*
X002337Y003180D01*
X002180Y003337D01*
X002180Y003338D02*
X002180Y020778D01*
X002337Y020936D01*
X021708Y020936D01*
X021865Y020778D01*
X021865Y003337D01*
X021865Y003337D01*
X021708Y003180D01*
X021707Y003180D02*
X002337Y003180D01*
D11*
X003908Y007015D03*
X004908Y007015D03*
X005908Y007015D03*
X006908Y007015D03*
X007908Y007015D03*
X008908Y007015D03*
X009908Y007015D03*
X010908Y007015D03*
X011908Y007015D03*
X012908Y007015D03*
X013908Y007015D03*
X014908Y007015D03*
X015908Y007015D03*
X016908Y007015D03*
X016908Y010015D03*
X015908Y010015D03*
X014908Y010015D03*
X013908Y010015D03*
X012908Y010015D03*
X011908Y010015D03*
X010908Y010015D03*
X009908Y010015D03*
X008908Y010015D03*
X007908Y010015D03*
X006908Y010015D03*
X005908Y010015D03*
X004908Y010015D03*
X003908Y010015D03*
D12*
X018965Y008097D03*
X018965Y006176D03*
D13*
X018962Y009852D03*
X018962Y010757D03*
X018962Y011663D03*
D14*
X021285Y010757D03*
D15*
X015908Y011465D03*
X014908Y011565D03*
X013908Y011465D03*
X012908Y011565D03*
X011908Y011465D03*
X010908Y011565D03*
X009908Y011465D03*
X008908Y011565D03*
X007908Y011465D03*
X006908Y011565D03*
X005908Y011465D03*
X004908Y011565D03*
X002794Y011015D03*
X002694Y010015D03*
X002794Y009015D03*
X002694Y008015D03*
X002794Y007015D03*
X002694Y006015D03*
X004908Y005565D03*
X005908Y005465D03*
X006908Y005565D03*
X007908Y005465D03*
X008908Y005565D03*
X009908Y005465D03*
X010908Y005565D03*
X011908Y005465D03*
X012908Y005565D03*
X013908Y005465D03*
X014908Y005565D03*
X015908Y005465D03*
X015857Y003917D03*
X014857Y004017D03*
X013857Y003917D03*
X012857Y004017D03*
X011857Y003917D03*
X010857Y004017D03*
X009857Y003917D03*
X008857Y004017D03*
X007857Y003917D03*
X006857Y004017D03*
X005857Y003917D03*
X004857Y004017D03*
X016857Y004017D03*
X017857Y003917D03*
X018857Y004017D03*
X019857Y003917D03*
X018978Y016814D03*
X018978Y017954D03*
X018146Y019982D03*
X017006Y019982D03*
X015983Y017950D03*
X015983Y016810D03*
X013529Y018183D03*
X013429Y019183D03*
X013529Y020183D03*
X012036Y020183D03*
X011936Y019183D03*
X012036Y018183D03*
X010532Y018183D03*
X010432Y019183D03*
X010532Y020183D03*
X009028Y020182D03*
X008928Y019182D03*
X009028Y018182D03*
X007532Y018181D03*
X007432Y019181D03*
X007532Y020181D03*
X006026Y020181D03*
X005926Y019181D03*
X006026Y018181D03*
X004530Y018181D03*
X004430Y019181D03*
X004530Y020181D03*
X002931Y020180D03*
X002831Y019180D03*
X002931Y018180D03*
X002831Y017180D03*
D16*
X020412Y008475D03*
X020412Y007727D03*
X020412Y006546D03*
X020412Y005798D03*
D17*
X020999Y004440D03*
X020999Y003652D03*
X012696Y008671D03*
X011908Y008671D03*
X009271Y008419D03*
X008483Y008419D03*
X005806Y008416D03*
X005019Y008416D03*
X002613Y004715D03*
X002613Y003928D03*
X015604Y013437D03*
X015604Y014225D03*
X016567Y014204D03*
X016567Y013417D03*
X018295Y013430D03*
X018295Y014218D03*
X019218Y014247D03*
X019218Y013460D03*
X019230Y015254D03*
X018442Y015254D03*
X016441Y015267D03*
X015653Y015267D03*
X014580Y019386D03*
X014580Y020174D03*
X008834Y017235D03*
X008046Y017235D03*
D18*
X017814Y011489D03*
X017814Y010229D03*
X021359Y007286D03*
X021359Y006026D03*
D19*
X020517Y013814D03*
X014305Y013871D03*
X003912Y004282D03*
D20*
X008912Y012902D03*
X008912Y013402D03*
X008912Y013902D03*
X008912Y014402D03*
X008912Y014902D03*
X008912Y015402D03*
X008912Y015902D03*
X008912Y016402D03*
X010960Y016402D03*
X010960Y015902D03*
X010960Y015402D03*
X010960Y014902D03*
X010960Y014402D03*
X010960Y013902D03*
X010960Y013402D03*
X010960Y012902D03*
M02*
