G75*
G70*
%OFA0B0*%
%FSLAX24Y24*%
%IPPOS*%
%LPD*%
%AMOC8*
5,1,8,0,0,1.08239X$1,22.5*
%
%ADD10C,0.0000*%
%ADD11C,0.0591*%
%ADD12C,0.0660*%
%ADD13C,0.0740*%
%ADD14C,0.0356*%
%ADD15C,0.0160*%
%ADD16C,0.0277*%
%ADD17C,0.0100*%
%ADD18C,0.0240*%
%ADD19C,0.0120*%
D10*
X002337Y003180D02*
X002337Y003180D01*
X002180Y003337D01*
X002180Y003338D02*
X002180Y020778D01*
X002337Y020936D01*
X021708Y020936D01*
X021865Y020778D01*
X021865Y003337D01*
X021865Y003337D01*
X021708Y003180D01*
X021707Y003180D02*
X002337Y003180D01*
D11*
X003908Y007015D03*
X004908Y007015D03*
X005908Y007015D03*
X006908Y007015D03*
X007908Y007015D03*
X008908Y007015D03*
X009908Y007015D03*
X010908Y007015D03*
X011908Y007015D03*
X012908Y007015D03*
X013908Y007015D03*
X014908Y007015D03*
X015908Y007015D03*
X016908Y007015D03*
X016908Y010015D03*
X015908Y010015D03*
X014908Y010015D03*
X013908Y010015D03*
X012908Y010015D03*
X011908Y010015D03*
X010908Y010015D03*
X009908Y010015D03*
X008908Y010015D03*
X007908Y010015D03*
X006908Y010015D03*
X005908Y010015D03*
X004908Y010015D03*
X003908Y010015D03*
D12*
X018965Y008097D03*
X018965Y006176D03*
D13*
X018857Y004017D03*
X019857Y003917D03*
X017857Y003917D03*
X016857Y004017D03*
X015857Y003917D03*
X014857Y004017D03*
X013857Y003917D03*
X012857Y004017D03*
X011857Y003917D03*
X010857Y004017D03*
X009857Y003917D03*
X008857Y004017D03*
X007857Y003917D03*
X006857Y004017D03*
X005857Y003917D03*
X004857Y004017D03*
X005908Y005465D03*
X004908Y005565D03*
X006908Y005565D03*
X007908Y005465D03*
X008908Y005565D03*
X009908Y005465D03*
X010908Y005565D03*
X011908Y005465D03*
X012908Y005565D03*
X013908Y005465D03*
X014908Y005565D03*
X015908Y005465D03*
X015908Y011465D03*
X014908Y011565D03*
X013908Y011465D03*
X012908Y011565D03*
X011908Y011465D03*
X010908Y011565D03*
X009908Y011465D03*
X008908Y011565D03*
X007908Y011465D03*
X006908Y011565D03*
X005908Y011465D03*
X004908Y011565D03*
X002794Y011015D03*
X002694Y010015D03*
X002794Y009015D03*
X002694Y008015D03*
X002794Y007015D03*
X002694Y006015D03*
X002831Y017180D03*
X002931Y018180D03*
X002831Y019180D03*
X002931Y020180D03*
X004530Y020181D03*
X004430Y019181D03*
X004530Y018181D03*
X006026Y018181D03*
X005926Y019181D03*
X006026Y020181D03*
X007532Y020181D03*
X007432Y019181D03*
X007532Y018181D03*
X009028Y018182D03*
X008928Y019182D03*
X009028Y020182D03*
X010432Y019183D03*
X010532Y018183D03*
X012036Y018183D03*
X011936Y019183D03*
X012036Y020183D03*
X010532Y020183D03*
X013429Y019183D03*
X013529Y018183D03*
X013529Y020183D03*
X015983Y017950D03*
X015983Y016810D03*
X018978Y016814D03*
X018978Y017954D03*
X018146Y019982D03*
X017006Y019982D03*
D14*
X013719Y013889D03*
X013189Y008710D03*
X008011Y008419D03*
X019782Y011645D03*
X021121Y013828D03*
X020373Y007117D03*
X021352Y005387D03*
D15*
X021685Y005399D02*
X015434Y005399D01*
X015458Y005456D02*
X015458Y005675D01*
X015374Y005877D01*
X015219Y006032D01*
X015017Y006115D01*
X014798Y006115D01*
X014596Y006032D01*
X014441Y005877D01*
X014387Y005746D01*
X014374Y005777D01*
X014219Y005932D01*
X014017Y006015D01*
X013798Y006015D01*
X013596Y005932D01*
X013441Y005777D01*
X013428Y005746D01*
X013374Y005877D01*
X013219Y006032D01*
X013017Y006115D01*
X012798Y006115D01*
X012596Y006032D01*
X012441Y005877D01*
X012387Y005746D01*
X012374Y005777D01*
X012219Y005932D01*
X012017Y006015D01*
X011798Y006015D01*
X011596Y005932D01*
X011441Y005777D01*
X011428Y005746D01*
X011374Y005877D01*
X011219Y006032D01*
X011017Y006115D01*
X010798Y006115D01*
X010596Y006032D01*
X010441Y005877D01*
X010387Y005746D01*
X010374Y005777D01*
X010219Y005932D01*
X010017Y006015D01*
X009798Y006015D01*
X009596Y005932D01*
X009441Y005777D01*
X009428Y005746D01*
X009374Y005877D01*
X009219Y006032D01*
X009017Y006115D01*
X008798Y006115D01*
X008596Y006032D01*
X008441Y005877D01*
X008387Y005746D01*
X008374Y005777D01*
X008219Y005932D01*
X008017Y006015D01*
X007798Y006015D01*
X007596Y005932D01*
X007441Y005777D01*
X007428Y005746D01*
X007374Y005877D01*
X007219Y006032D01*
X007017Y006115D01*
X006798Y006115D01*
X006596Y006032D01*
X006441Y005877D01*
X006387Y005746D01*
X006374Y005777D01*
X006219Y005932D01*
X006017Y006015D01*
X005798Y006015D01*
X005596Y005932D01*
X005441Y005777D01*
X005428Y005746D01*
X005374Y005877D01*
X005219Y006032D01*
X005017Y006115D01*
X004798Y006115D01*
X004596Y006032D01*
X004441Y005877D01*
X004358Y005675D01*
X004358Y005456D01*
X004441Y005254D01*
X004596Y005099D01*
X004798Y005015D01*
X005017Y005015D01*
X005129Y005062D01*
X005108Y005011D01*
X005108Y004892D01*
X005154Y004782D01*
X005238Y004697D01*
X005349Y004652D01*
X005468Y004652D01*
X005578Y004697D01*
X005603Y004722D01*
X006481Y004722D01*
X006790Y004852D01*
X006947Y005015D01*
X007017Y005015D01*
X007219Y005099D01*
X007374Y005254D01*
X007387Y005285D01*
X007441Y005154D01*
X007596Y004999D01*
X007798Y004915D01*
X008017Y004915D01*
X008219Y004999D01*
X008374Y005154D01*
X008428Y005285D01*
X008441Y005254D01*
X008596Y005099D01*
X008798Y005015D01*
X009017Y005015D01*
X009219Y005099D01*
X009374Y005254D01*
X009387Y005285D01*
X009441Y005154D01*
X009596Y004999D01*
X009798Y004915D01*
X010017Y004915D01*
X010219Y004999D01*
X010374Y005154D01*
X010428Y005285D01*
X010441Y005254D01*
X010596Y005099D01*
X010798Y005015D01*
X011017Y005015D01*
X011219Y005099D01*
X011374Y005254D01*
X011387Y005285D01*
X011441Y005154D01*
X011596Y004999D01*
X011798Y004915D01*
X012017Y004915D01*
X012219Y004999D01*
X012374Y005154D01*
X012428Y005285D01*
X012441Y005254D01*
X012596Y005099D01*
X012798Y005015D01*
X013017Y005015D01*
X013219Y005099D01*
X013374Y005254D01*
X013387Y005285D01*
X013441Y005154D01*
X013596Y004999D01*
X013798Y004915D01*
X013905Y004915D01*
X014020Y004801D01*
X014308Y004682D01*
X014462Y004682D01*
X016119Y004682D01*
X016134Y004671D01*
X016212Y004682D01*
X016291Y004682D01*
X016304Y004695D01*
X016306Y004696D01*
X016412Y004652D01*
X016531Y004652D01*
X016641Y004697D01*
X016726Y004782D01*
X016771Y004892D01*
X016771Y005011D01*
X016726Y005122D01*
X016641Y005206D01*
X016531Y005252D01*
X016412Y005252D01*
X016301Y005206D01*
X016247Y005152D01*
X016179Y005142D01*
X015262Y005142D01*
X015374Y005254D01*
X015458Y005456D01*
X015458Y005558D02*
X021685Y005558D01*
X021685Y005716D02*
X019187Y005716D01*
X019254Y005744D02*
X019397Y005887D01*
X019475Y006075D01*
X019475Y006278D01*
X019397Y006465D01*
X019254Y006608D01*
X019066Y006686D01*
X018864Y006686D01*
X018676Y006608D01*
X018533Y006465D01*
X018455Y006278D01*
X018455Y006075D01*
X018533Y005887D01*
X018676Y005744D01*
X018864Y005666D01*
X019066Y005666D01*
X019254Y005744D01*
X019385Y005875D02*
X021685Y005875D01*
X021685Y006033D02*
X019458Y006033D01*
X019475Y006192D02*
X021685Y006192D01*
X021685Y006350D02*
X019445Y006350D01*
X019354Y006509D02*
X021685Y006509D01*
X021685Y006667D02*
X019112Y006667D01*
X018818Y006667D02*
X017293Y006667D01*
X017249Y006685D02*
X017310Y006746D01*
X017383Y006921D01*
X017383Y007110D01*
X017310Y007285D01*
X017177Y007418D01*
X017002Y007491D01*
X016813Y007491D01*
X016672Y007432D01*
X016667Y007444D01*
X016658Y007453D01*
X016669Y007578D01*
X016755Y008213D01*
X016779Y008339D01*
X016844Y008404D01*
X016889Y008514D01*
X016889Y008633D01*
X016844Y008744D01*
X016759Y008828D01*
X016649Y008874D01*
X016530Y008874D01*
X016420Y008828D01*
X016335Y008744D01*
X016289Y008633D01*
X016289Y008514D01*
X016325Y008429D01*
X016296Y008291D01*
X016205Y007625D01*
X016196Y007482D01*
X016158Y007444D01*
X016151Y007429D01*
X016002Y007491D01*
X015813Y007491D01*
X015638Y007418D01*
X015505Y007285D01*
X015432Y007110D01*
X015432Y006921D01*
X015505Y006746D01*
X015638Y006613D01*
X015813Y006540D01*
X016002Y006540D01*
X016177Y006613D01*
X016260Y006695D01*
X016326Y006551D01*
X016535Y006359D01*
X016579Y006343D01*
X016579Y006343D01*
X016609Y006332D01*
X016668Y006310D01*
X016730Y006288D01*
X016893Y006229D01*
X016910Y006188D01*
X016999Y006099D01*
X017117Y006050D01*
X017243Y006050D01*
X017361Y006099D01*
X017450Y006188D01*
X017499Y006306D01*
X017499Y006432D01*
X017450Y006550D01*
X017361Y006639D01*
X017249Y006685D01*
X017343Y006826D02*
X021685Y006826D01*
X021685Y006984D02*
X017383Y006984D01*
X017369Y007143D02*
X021685Y007143D01*
X021685Y007301D02*
X017294Y007301D01*
X017077Y007460D02*
X021685Y007460D01*
X021685Y007618D02*
X019141Y007618D01*
X019066Y007587D02*
X019254Y007665D01*
X019397Y007808D01*
X019475Y007996D01*
X019475Y008199D01*
X019397Y008386D01*
X019254Y008530D01*
X019066Y008607D01*
X018864Y008607D01*
X018676Y008530D01*
X018533Y008386D01*
X018455Y008199D01*
X018455Y007996D01*
X018533Y007808D01*
X018676Y007665D01*
X018864Y007587D01*
X019066Y007587D01*
X018790Y007618D02*
X016674Y007618D01*
X016659Y007460D02*
X016738Y007460D01*
X016696Y007777D02*
X018565Y007777D01*
X018480Y007935D02*
X016717Y007935D01*
X016739Y008094D02*
X018455Y008094D01*
X018477Y008252D02*
X016763Y008252D01*
X016847Y008411D02*
X018557Y008411D01*
X018771Y008569D02*
X016889Y008569D01*
X016850Y008728D02*
X021685Y008728D01*
X021685Y008886D02*
X006792Y008886D01*
X006781Y008912D02*
X006691Y009001D01*
X006683Y009005D01*
X006653Y009135D01*
X006625Y009264D01*
X006672Y009376D01*
X006672Y009503D01*
X006623Y009620D01*
X006534Y009710D01*
X006417Y009759D01*
X006316Y009759D01*
X006383Y009921D01*
X006383Y010110D01*
X006310Y010285D01*
X006177Y010418D01*
X006002Y010491D01*
X005813Y010491D01*
X005638Y010418D01*
X005505Y010285D01*
X005432Y010110D01*
X005432Y009921D01*
X005505Y009746D01*
X005638Y009613D01*
X005813Y009540D01*
X006002Y009540D01*
X006060Y009564D01*
X006034Y009503D01*
X006034Y009376D01*
X006083Y009259D01*
X006173Y009170D01*
X006200Y009034D01*
X006234Y008896D01*
X006192Y008795D01*
X006192Y008668D01*
X006240Y008551D01*
X006330Y008461D01*
X006447Y008412D01*
X006574Y008412D01*
X006691Y008461D01*
X006781Y008551D01*
X006829Y008668D01*
X006829Y008795D01*
X006781Y008912D01*
X006674Y009045D02*
X021685Y009045D01*
X021685Y009203D02*
X006638Y009203D01*
X006666Y009362D02*
X021685Y009362D01*
X021685Y009520D02*
X006665Y009520D01*
X006638Y009613D02*
X006813Y009540D01*
X007002Y009540D01*
X007177Y009613D01*
X007310Y009746D01*
X007383Y009921D01*
X007383Y010110D01*
X007310Y010285D01*
X007177Y010418D01*
X007002Y010491D01*
X006813Y010491D01*
X006638Y010418D01*
X006505Y010285D01*
X006432Y010110D01*
X006432Y009921D01*
X006505Y009746D01*
X006638Y009613D01*
X006572Y009679D02*
X006565Y009679D01*
X006467Y009837D02*
X006348Y009837D01*
X006383Y009996D02*
X006432Y009996D01*
X006451Y010154D02*
X006365Y010154D01*
X006283Y010313D02*
X006532Y010313D01*
X006765Y010471D02*
X006050Y010471D01*
X005765Y010471D02*
X005050Y010471D01*
X005002Y010491D02*
X004813Y010491D01*
X004638Y010418D01*
X004505Y010285D01*
X004432Y010110D01*
X004432Y009921D01*
X004505Y009746D01*
X004638Y009613D01*
X004813Y009540D01*
X005002Y009540D01*
X005177Y009613D01*
X005310Y009746D01*
X005383Y009921D01*
X005383Y010110D01*
X005310Y010285D01*
X005177Y010418D01*
X005002Y010491D01*
X004765Y010471D02*
X004050Y010471D01*
X004002Y010491D02*
X004177Y010418D01*
X004310Y010285D01*
X004383Y010110D01*
X004383Y009921D01*
X004310Y009746D01*
X004177Y009613D01*
X004002Y009540D01*
X003813Y009540D01*
X003638Y009613D01*
X003505Y009746D01*
X003432Y009921D01*
X003432Y010110D01*
X003505Y010285D01*
X003638Y010418D01*
X003813Y010491D01*
X004002Y010491D01*
X003765Y010471D02*
X002360Y010471D01*
X002360Y010313D02*
X003532Y010313D01*
X003451Y010154D02*
X002360Y010154D01*
X002360Y009996D02*
X003432Y009996D01*
X003467Y009837D02*
X002360Y009837D01*
X002360Y009679D02*
X003572Y009679D01*
X003226Y009362D02*
X006041Y009362D01*
X006041Y009520D02*
X003013Y009520D01*
X003105Y009482D02*
X002903Y009565D01*
X002684Y009565D01*
X002482Y009482D01*
X002360Y009360D01*
X002360Y018880D01*
X002365Y018869D01*
X002520Y018714D01*
X002651Y018660D01*
X002620Y018647D01*
X002465Y018492D01*
X002381Y018290D01*
X002381Y018071D01*
X002465Y017869D01*
X002620Y017714D01*
X002822Y017630D01*
X003041Y017630D01*
X003243Y017714D01*
X003397Y017869D01*
X003481Y018071D01*
X003481Y018290D01*
X003397Y018492D01*
X003243Y018647D01*
X003111Y018701D01*
X003143Y018714D01*
X003297Y018869D01*
X003381Y019071D01*
X003381Y019290D01*
X003297Y019492D01*
X003143Y019647D01*
X003111Y019660D01*
X003243Y019714D01*
X003397Y019869D01*
X003481Y020071D01*
X003481Y020290D01*
X003397Y020492D01*
X003243Y020647D01*
X003041Y020730D01*
X002822Y020730D01*
X002620Y020647D01*
X002465Y020492D01*
X002381Y020290D01*
X002381Y020071D01*
X002465Y019869D01*
X002620Y019714D01*
X002651Y019701D01*
X002520Y019647D01*
X002365Y019492D01*
X002360Y019480D01*
X002360Y020704D01*
X002412Y020756D01*
X021633Y020756D01*
X021685Y020704D01*
X021685Y003412D01*
X021633Y003360D01*
X002412Y003360D01*
X002360Y003412D01*
X002360Y005571D01*
X002382Y005549D01*
X002584Y005465D01*
X002803Y005465D01*
X003005Y005549D01*
X003160Y005704D01*
X003200Y005800D01*
X003200Y005794D01*
X003248Y005677D01*
X003338Y005587D01*
X003455Y005538D01*
X003582Y005538D01*
X003699Y005587D01*
X003789Y005677D01*
X003837Y005794D01*
X003837Y005921D01*
X003789Y006038D01*
X003699Y006127D01*
X003665Y006141D01*
X003662Y006153D01*
X003658Y006176D01*
X003665Y006222D01*
X003689Y006263D01*
X003726Y006290D01*
X003772Y006301D01*
X003796Y006300D01*
X003813Y006297D01*
X003943Y006275D01*
X004232Y006346D01*
X004469Y006526D01*
X004469Y006526D01*
X004562Y006689D01*
X004638Y006613D01*
X004813Y006540D01*
X005002Y006540D01*
X005177Y006613D01*
X005310Y006746D01*
X005383Y006921D01*
X005383Y007110D01*
X005310Y007285D01*
X005177Y007418D01*
X005002Y007491D01*
X004909Y007491D01*
X004940Y007565D01*
X004940Y007692D01*
X004891Y007809D01*
X004801Y007899D01*
X004684Y007948D01*
X004606Y007948D01*
X004606Y007964D01*
X004560Y008074D01*
X004476Y008159D01*
X004366Y008204D01*
X004246Y008204D01*
X004136Y008159D01*
X004052Y008074D01*
X004006Y007964D01*
X004006Y007845D01*
X004016Y007820D01*
X003869Y007491D01*
X003813Y007491D01*
X003638Y007418D01*
X003505Y007285D01*
X003432Y007110D01*
X003432Y006922D01*
X003308Y006819D01*
X003344Y006906D01*
X003344Y007125D01*
X003260Y007327D01*
X003105Y007482D01*
X002974Y007536D01*
X003005Y007549D01*
X003160Y007704D01*
X003244Y007906D01*
X003244Y008125D01*
X003160Y008327D01*
X003005Y008482D01*
X002974Y008495D01*
X003105Y008549D01*
X003260Y008704D01*
X003344Y008906D01*
X003344Y009125D01*
X003260Y009327D01*
X003105Y009482D01*
X003311Y009203D02*
X006139Y009203D01*
X006173Y009170D02*
X006173Y009170D01*
X006198Y009045D02*
X003344Y009045D01*
X003335Y008886D02*
X006230Y008886D01*
X006192Y008728D02*
X003270Y008728D01*
X003125Y008569D02*
X006233Y008569D01*
X006789Y008569D02*
X016289Y008569D01*
X016321Y008411D02*
X003077Y008411D01*
X003191Y008252D02*
X016291Y008252D01*
X016269Y008094D02*
X004541Y008094D01*
X004715Y007935D02*
X016248Y007935D01*
X016226Y007777D02*
X004905Y007777D01*
X004940Y007618D02*
X016205Y007618D01*
X016173Y007460D02*
X016077Y007460D01*
X015738Y007460D02*
X015077Y007460D01*
X015002Y007491D02*
X015177Y007418D01*
X015310Y007285D01*
X015383Y007110D01*
X015383Y006921D01*
X015310Y006746D01*
X015177Y006613D01*
X015002Y006540D01*
X014813Y006540D01*
X014638Y006613D01*
X014505Y006746D01*
X014432Y006921D01*
X014432Y007110D01*
X014505Y007285D01*
X014638Y007418D01*
X014813Y007491D01*
X015002Y007491D01*
X014738Y007460D02*
X014077Y007460D01*
X014002Y007491D02*
X013813Y007491D01*
X013638Y007418D01*
X013505Y007285D01*
X013432Y007110D01*
X013432Y006921D01*
X013505Y006746D01*
X013638Y006613D01*
X013813Y006540D01*
X014002Y006540D01*
X014177Y006613D01*
X014310Y006746D01*
X014383Y006921D01*
X014383Y007110D01*
X014310Y007285D01*
X014177Y007418D01*
X014002Y007491D01*
X013738Y007460D02*
X013077Y007460D01*
X013002Y007491D02*
X012813Y007491D01*
X012638Y007418D01*
X012505Y007285D01*
X012432Y007110D01*
X012432Y006921D01*
X012505Y006746D01*
X012638Y006613D01*
X012813Y006540D01*
X013002Y006540D01*
X013177Y006613D01*
X013310Y006746D01*
X013383Y006921D01*
X013383Y007110D01*
X013310Y007285D01*
X013177Y007418D01*
X013002Y007491D01*
X012738Y007460D02*
X012077Y007460D01*
X012002Y007491D02*
X011813Y007491D01*
X011638Y007418D01*
X011505Y007285D01*
X011432Y007110D01*
X011432Y006921D01*
X011505Y006746D01*
X011638Y006613D01*
X011813Y006540D01*
X012002Y006540D01*
X012177Y006613D01*
X012310Y006746D01*
X012383Y006921D01*
X012383Y007110D01*
X012310Y007285D01*
X012177Y007418D01*
X012002Y007491D01*
X011738Y007460D02*
X010077Y007460D01*
X010002Y007491D02*
X009813Y007491D01*
X009638Y007418D01*
X009505Y007285D01*
X009432Y007110D01*
X009432Y006921D01*
X009505Y006746D01*
X009638Y006613D01*
X009813Y006540D01*
X010002Y006540D01*
X010177Y006613D01*
X010310Y006746D01*
X010383Y006921D01*
X010383Y007110D01*
X010310Y007285D01*
X010177Y007418D01*
X010002Y007491D01*
X009738Y007460D02*
X009077Y007460D01*
X009002Y007491D02*
X008813Y007491D01*
X008638Y007418D01*
X008505Y007285D01*
X008432Y007110D01*
X008432Y006921D01*
X008505Y006746D01*
X008638Y006613D01*
X008813Y006540D01*
X009002Y006540D01*
X009177Y006613D01*
X009310Y006746D01*
X009383Y006921D01*
X009383Y007110D01*
X009310Y007285D01*
X009177Y007418D01*
X009002Y007491D01*
X008738Y007460D02*
X008077Y007460D01*
X008002Y007491D02*
X008177Y007418D01*
X008310Y007285D01*
X008383Y007110D01*
X008383Y006921D01*
X008310Y006746D01*
X008177Y006613D01*
X008002Y006540D01*
X007813Y006540D01*
X007638Y006613D01*
X007505Y006746D01*
X007432Y006921D01*
X007432Y007110D01*
X007505Y007285D01*
X007638Y007418D01*
X007813Y007491D01*
X008002Y007491D01*
X007738Y007460D02*
X007077Y007460D01*
X007002Y007491D02*
X006813Y007491D01*
X006638Y007418D01*
X006505Y007285D01*
X006432Y007110D01*
X006432Y006921D01*
X006505Y006746D01*
X006638Y006613D01*
X006813Y006540D01*
X007002Y006540D01*
X007177Y006613D01*
X007310Y006746D01*
X007383Y006921D01*
X007383Y007110D01*
X007310Y007285D01*
X007177Y007418D01*
X007002Y007491D01*
X006738Y007460D02*
X006077Y007460D01*
X006002Y007491D02*
X005813Y007491D01*
X005638Y007418D01*
X005505Y007285D01*
X005432Y007110D01*
X005432Y006921D01*
X005505Y006746D01*
X005638Y006613D01*
X005813Y006540D01*
X006002Y006540D01*
X006177Y006613D01*
X006310Y006746D01*
X006383Y006921D01*
X006383Y007110D01*
X006310Y007285D01*
X006177Y007418D01*
X006002Y007491D01*
X005738Y007460D02*
X005077Y007460D01*
X005294Y007301D02*
X005521Y007301D01*
X005446Y007143D02*
X005369Y007143D01*
X005383Y006984D02*
X005432Y006984D01*
X005472Y006826D02*
X005343Y006826D01*
X005231Y006667D02*
X005584Y006667D01*
X006231Y006667D02*
X006584Y006667D01*
X006472Y006826D02*
X006343Y006826D01*
X006383Y006984D02*
X006432Y006984D01*
X006446Y007143D02*
X006369Y007143D01*
X006294Y007301D02*
X006521Y007301D01*
X007231Y006667D02*
X007584Y006667D01*
X007472Y006826D02*
X007343Y006826D01*
X007383Y006984D02*
X007432Y006984D01*
X007446Y007143D02*
X007369Y007143D01*
X007294Y007301D02*
X007521Y007301D01*
X008294Y007301D02*
X008521Y007301D01*
X008446Y007143D02*
X008369Y007143D01*
X008383Y006984D02*
X008432Y006984D01*
X008472Y006826D02*
X008343Y006826D01*
X008231Y006667D02*
X008584Y006667D01*
X008599Y006033D02*
X007216Y006033D01*
X007375Y005875D02*
X007539Y005875D01*
X008276Y005875D02*
X008440Y005875D01*
X008410Y005241D02*
X008455Y005241D01*
X008302Y005082D02*
X008637Y005082D01*
X009178Y005082D02*
X009513Y005082D01*
X009405Y005241D02*
X009360Y005241D01*
X009779Y004924D02*
X008036Y004924D01*
X007779Y004924D02*
X006858Y004924D01*
X006790Y004852D02*
X006790Y004852D01*
X006584Y004765D02*
X014107Y004765D01*
X014020Y004801D02*
X014020Y004801D01*
X013779Y004924D02*
X012036Y004924D01*
X011779Y004924D02*
X010036Y004924D01*
X010302Y005082D02*
X010637Y005082D01*
X010455Y005241D02*
X010410Y005241D01*
X010748Y004567D02*
X010546Y004484D01*
X010391Y004329D01*
X010336Y004198D01*
X010323Y004229D01*
X010169Y004384D01*
X009967Y004467D01*
X009748Y004467D01*
X009546Y004384D01*
X009391Y004229D01*
X009307Y004027D01*
X009307Y003808D01*
X009391Y003606D01*
X009546Y003451D01*
X009748Y003367D01*
X009967Y003367D01*
X010169Y003451D01*
X010323Y003606D01*
X010378Y003737D01*
X010391Y003706D01*
X010546Y003551D01*
X010748Y003467D01*
X010967Y003467D01*
X011169Y003551D01*
X011323Y003706D01*
X011336Y003737D01*
X011391Y003606D01*
X011546Y003451D01*
X011748Y003367D01*
X011967Y003367D01*
X012169Y003451D01*
X012323Y003606D01*
X012378Y003737D01*
X012391Y003706D01*
X012546Y003551D01*
X012748Y003467D01*
X012967Y003467D01*
X013169Y003551D01*
X013323Y003706D01*
X013336Y003737D01*
X013391Y003606D01*
X013546Y003451D01*
X013748Y003367D01*
X013967Y003367D01*
X014169Y003451D01*
X014323Y003606D01*
X014378Y003737D01*
X014391Y003706D01*
X014546Y003551D01*
X014748Y003467D01*
X014967Y003467D01*
X015169Y003551D01*
X015323Y003706D01*
X015336Y003737D01*
X015391Y003606D01*
X015546Y003451D01*
X015748Y003367D01*
X015967Y003367D01*
X016169Y003451D01*
X016323Y003606D01*
X016378Y003737D01*
X016391Y003706D01*
X016546Y003551D01*
X016748Y003467D01*
X016967Y003467D01*
X017169Y003551D01*
X017323Y003706D01*
X017336Y003737D01*
X017391Y003606D01*
X017546Y003451D01*
X017748Y003367D01*
X017967Y003367D01*
X018169Y003451D01*
X018323Y003606D01*
X018378Y003737D01*
X018391Y003706D01*
X018546Y003551D01*
X018748Y003467D01*
X018967Y003467D01*
X019169Y003551D01*
X019323Y003706D01*
X019407Y003908D01*
X019407Y004127D01*
X019323Y004329D01*
X019169Y004484D01*
X018967Y004567D01*
X018748Y004567D01*
X018546Y004484D01*
X018391Y004329D01*
X018336Y004198D01*
X018323Y004229D01*
X018169Y004384D01*
X017967Y004467D01*
X017748Y004467D01*
X017546Y004384D01*
X017391Y004229D01*
X017378Y004198D01*
X017323Y004329D01*
X017169Y004484D01*
X016967Y004567D01*
X016748Y004567D01*
X016546Y004484D01*
X016391Y004329D01*
X016336Y004198D01*
X016323Y004229D01*
X016169Y004384D01*
X015967Y004467D01*
X015748Y004467D01*
X015546Y004384D01*
X015391Y004229D01*
X015378Y004198D01*
X015323Y004329D01*
X015169Y004484D01*
X014967Y004567D01*
X014748Y004567D01*
X014546Y004484D01*
X014391Y004329D01*
X014336Y004198D01*
X014323Y004229D01*
X014169Y004384D01*
X013967Y004467D01*
X013748Y004467D01*
X013546Y004384D01*
X013391Y004229D01*
X013378Y004198D01*
X013323Y004329D01*
X013169Y004484D01*
X012967Y004567D01*
X012748Y004567D01*
X012546Y004484D01*
X012391Y004329D01*
X012336Y004198D01*
X012323Y004229D01*
X012169Y004384D01*
X011967Y004467D01*
X011748Y004467D01*
X011546Y004384D01*
X011391Y004229D01*
X011378Y004198D01*
X011323Y004329D01*
X011169Y004484D01*
X010967Y004567D01*
X010748Y004567D01*
X010510Y004448D02*
X010013Y004448D01*
X010263Y004290D02*
X010375Y004290D01*
X010344Y003656D02*
X010441Y003656D01*
X010215Y003497D02*
X010676Y003497D01*
X011038Y003497D02*
X011500Y003497D01*
X011370Y003656D02*
X011273Y003656D01*
X011340Y004290D02*
X011451Y004290D01*
X011204Y004448D02*
X011701Y004448D01*
X012013Y004448D02*
X012510Y004448D01*
X012375Y004290D02*
X012263Y004290D01*
X012344Y003656D02*
X012441Y003656D01*
X012215Y003497D02*
X012676Y003497D01*
X013038Y003497D02*
X013500Y003497D01*
X013370Y003656D02*
X013273Y003656D01*
X013340Y004290D02*
X013451Y004290D01*
X013204Y004448D02*
X013701Y004448D01*
X014013Y004448D02*
X014510Y004448D01*
X014375Y004290D02*
X014263Y004290D01*
X014308Y004682D02*
X014308Y004682D01*
X013513Y005082D02*
X013178Y005082D01*
X013360Y005241D02*
X013405Y005241D01*
X013375Y005875D02*
X013539Y005875D01*
X013216Y006033D02*
X014599Y006033D01*
X014440Y005875D02*
X014276Y005875D01*
X014231Y006667D02*
X014584Y006667D01*
X014472Y006826D02*
X014343Y006826D01*
X014383Y006984D02*
X014432Y006984D01*
X014446Y007143D02*
X014369Y007143D01*
X014294Y007301D02*
X014521Y007301D01*
X015294Y007301D02*
X015521Y007301D01*
X015446Y007143D02*
X015369Y007143D01*
X015383Y006984D02*
X015432Y006984D01*
X015472Y006826D02*
X015343Y006826D01*
X015231Y006667D02*
X015584Y006667D01*
X016231Y006667D02*
X016273Y006667D01*
X016326Y006551D02*
X016326Y006551D01*
X016372Y006509D02*
X004446Y006509D01*
X004469Y006526D02*
X004469Y006526D01*
X004549Y006667D02*
X004584Y006667D01*
X004237Y006350D02*
X016559Y006350D01*
X016535Y006359D02*
X016535Y006359D01*
X016909Y006192D02*
X003660Y006192D01*
X003662Y006153D02*
X003662Y006153D01*
X003791Y006033D02*
X004599Y006033D01*
X004440Y005875D02*
X003837Y005875D01*
X003805Y005716D02*
X004375Y005716D01*
X004358Y005558D02*
X003628Y005558D01*
X003409Y005558D02*
X003014Y005558D01*
X003165Y005716D02*
X003232Y005716D01*
X004232Y006346D02*
X004232Y006346D01*
X003432Y006984D02*
X003344Y006984D01*
X003336Y007143D02*
X003446Y007143D01*
X003521Y007301D02*
X003271Y007301D01*
X003128Y007460D02*
X003738Y007460D01*
X003926Y007618D02*
X003074Y007618D01*
X003190Y007777D02*
X003997Y007777D01*
X004006Y007935D02*
X003244Y007935D01*
X003244Y008094D02*
X004071Y008094D01*
X003315Y006826D02*
X003310Y006826D01*
X002374Y005558D02*
X002360Y005558D01*
X002360Y005399D02*
X004381Y005399D01*
X004455Y005241D02*
X002360Y005241D01*
X002360Y005082D02*
X004637Y005082D01*
X005108Y004924D02*
X002360Y004924D01*
X002360Y004765D02*
X005171Y004765D01*
X005546Y004384D02*
X005391Y004229D01*
X005307Y004027D01*
X005307Y003808D01*
X005391Y003606D01*
X005546Y003451D01*
X005748Y003367D01*
X005967Y003367D01*
X006169Y003451D01*
X006323Y003606D01*
X006378Y003737D01*
X006391Y003706D01*
X006546Y003551D01*
X006748Y003467D01*
X006967Y003467D01*
X007169Y003551D01*
X007323Y003706D01*
X007336Y003737D01*
X007391Y003606D01*
X007546Y003451D01*
X007748Y003367D01*
X007967Y003367D01*
X008169Y003451D01*
X008323Y003606D01*
X008407Y003808D01*
X008407Y004027D01*
X008323Y004229D01*
X008169Y004384D01*
X007967Y004467D01*
X007748Y004467D01*
X007546Y004384D01*
X007391Y004229D01*
X007378Y004198D01*
X007323Y004329D01*
X007169Y004484D01*
X006967Y004567D01*
X006748Y004567D01*
X006546Y004484D01*
X006391Y004329D01*
X006336Y004198D01*
X006323Y004229D01*
X006169Y004384D01*
X005967Y004467D01*
X005748Y004467D01*
X005546Y004384D01*
X005451Y004290D02*
X002360Y004290D01*
X002360Y004448D02*
X005701Y004448D01*
X006013Y004448D02*
X006510Y004448D01*
X006375Y004290D02*
X006263Y004290D01*
X006344Y003656D02*
X006441Y003656D01*
X006215Y003497D02*
X006676Y003497D01*
X007038Y003497D02*
X007500Y003497D01*
X007370Y003656D02*
X007273Y003656D01*
X007340Y004290D02*
X007451Y004290D01*
X007204Y004448D02*
X007701Y004448D01*
X008013Y004448D02*
X009701Y004448D01*
X009451Y004290D02*
X008263Y004290D01*
X008364Y004131D02*
X009350Y004131D01*
X009307Y003973D02*
X008407Y003973D01*
X008407Y003814D02*
X009307Y003814D01*
X009370Y003656D02*
X008344Y003656D01*
X008215Y003497D02*
X009500Y003497D01*
X011178Y005082D02*
X011513Y005082D01*
X011405Y005241D02*
X011360Y005241D01*
X011375Y005875D02*
X011539Y005875D01*
X011216Y006033D02*
X012599Y006033D01*
X012440Y005875D02*
X012276Y005875D01*
X012410Y005241D02*
X012455Y005241D01*
X012302Y005082D02*
X012637Y005082D01*
X012584Y006667D02*
X012231Y006667D01*
X012343Y006826D02*
X012472Y006826D01*
X012432Y006984D02*
X012383Y006984D01*
X012369Y007143D02*
X012446Y007143D01*
X012521Y007301D02*
X012294Y007301D01*
X011584Y006667D02*
X010231Y006667D01*
X010343Y006826D02*
X011472Y006826D01*
X011432Y006984D02*
X010383Y006984D01*
X010369Y007143D02*
X011446Y007143D01*
X011521Y007301D02*
X010294Y007301D01*
X009521Y007301D02*
X009294Y007301D01*
X009369Y007143D02*
X009446Y007143D01*
X009432Y006984D02*
X009383Y006984D01*
X009343Y006826D02*
X009472Y006826D01*
X009584Y006667D02*
X009231Y006667D01*
X009216Y006033D02*
X010599Y006033D01*
X010440Y005875D02*
X010276Y005875D01*
X009539Y005875D02*
X009375Y005875D01*
X007513Y005082D02*
X007178Y005082D01*
X007360Y005241D02*
X007405Y005241D01*
X006599Y006033D02*
X005216Y006033D01*
X005375Y005875D02*
X005539Y005875D01*
X006276Y005875D02*
X006440Y005875D01*
X005350Y004131D02*
X002360Y004131D01*
X002360Y003973D02*
X005307Y003973D01*
X005307Y003814D02*
X002360Y003814D01*
X002360Y003656D02*
X005370Y003656D01*
X005500Y003497D02*
X002360Y003497D01*
X002360Y004607D02*
X021685Y004607D01*
X021685Y004765D02*
X016709Y004765D01*
X016771Y004924D02*
X021685Y004924D01*
X021685Y005082D02*
X016742Y005082D01*
X016558Y005241D02*
X021685Y005241D01*
X021685Y004448D02*
X019204Y004448D01*
X019340Y004290D02*
X021685Y004290D01*
X021685Y004131D02*
X019405Y004131D01*
X019407Y003973D02*
X021685Y003973D01*
X021685Y003814D02*
X019368Y003814D01*
X019273Y003656D02*
X021685Y003656D01*
X021685Y003497D02*
X019038Y003497D01*
X018676Y003497D02*
X018215Y003497D01*
X018344Y003656D02*
X018441Y003656D01*
X018375Y004290D02*
X018263Y004290D01*
X018510Y004448D02*
X018013Y004448D01*
X017701Y004448D02*
X017204Y004448D01*
X017340Y004290D02*
X017451Y004290D01*
X017370Y003656D02*
X017273Y003656D01*
X017500Y003497D02*
X017038Y003497D01*
X016676Y003497D02*
X016215Y003497D01*
X016344Y003656D02*
X016441Y003656D01*
X016375Y004290D02*
X016263Y004290D01*
X016510Y004448D02*
X016013Y004448D01*
X015701Y004448D02*
X015204Y004448D01*
X015340Y004290D02*
X015451Y004290D01*
X015370Y003656D02*
X015273Y003656D01*
X015500Y003497D02*
X015038Y003497D01*
X014676Y003497D02*
X014215Y003497D01*
X014344Y003656D02*
X014441Y003656D01*
X015360Y005241D02*
X016385Y005241D01*
X015441Y005716D02*
X018743Y005716D01*
X018545Y005875D02*
X015375Y005875D01*
X015216Y006033D02*
X018472Y006033D01*
X018455Y006192D02*
X017451Y006192D01*
X017499Y006350D02*
X018485Y006350D01*
X018576Y006509D02*
X017467Y006509D01*
X019365Y007777D02*
X021685Y007777D01*
X021685Y007935D02*
X019450Y007935D01*
X019475Y008094D02*
X021685Y008094D01*
X021685Y008252D02*
X019453Y008252D01*
X019373Y008411D02*
X021685Y008411D01*
X021685Y008569D02*
X019159Y008569D01*
X017310Y009746D02*
X017383Y009921D01*
X017383Y010110D01*
X017310Y010285D01*
X017177Y010418D01*
X017002Y010491D01*
X016813Y010491D01*
X016638Y010418D01*
X016505Y010285D01*
X016432Y010110D01*
X016432Y009921D01*
X016505Y009746D01*
X016638Y009613D01*
X016813Y009540D01*
X017002Y009540D01*
X017177Y009613D01*
X017310Y009746D01*
X017243Y009679D02*
X021685Y009679D01*
X021685Y009837D02*
X017348Y009837D01*
X017383Y009996D02*
X021685Y009996D01*
X021685Y010154D02*
X017365Y010154D01*
X017283Y010313D02*
X021685Y010313D01*
X021685Y010471D02*
X017050Y010471D01*
X016765Y010471D02*
X016050Y010471D01*
X016002Y010491D02*
X015813Y010491D01*
X015638Y010418D01*
X015505Y010285D01*
X015432Y010110D01*
X015432Y009921D01*
X015505Y009746D01*
X015638Y009613D01*
X015813Y009540D01*
X016002Y009540D01*
X016177Y009613D01*
X016310Y009746D01*
X016383Y009921D01*
X016383Y010110D01*
X016310Y010285D01*
X016177Y010418D01*
X016002Y010491D01*
X015765Y010471D02*
X015050Y010471D01*
X015002Y010491D02*
X014813Y010491D01*
X014638Y010418D01*
X014505Y010285D01*
X014432Y010110D01*
X014432Y009921D01*
X014505Y009746D01*
X014638Y009613D01*
X014813Y009540D01*
X015002Y009540D01*
X015177Y009613D01*
X015310Y009746D01*
X015383Y009921D01*
X015383Y010110D01*
X015310Y010285D01*
X015177Y010418D01*
X015002Y010491D01*
X014765Y010471D02*
X014050Y010471D01*
X014002Y010491D02*
X013813Y010491D01*
X013638Y010418D01*
X013505Y010285D01*
X013432Y010110D01*
X013432Y009921D01*
X013505Y009746D01*
X013638Y009613D01*
X013813Y009540D01*
X014002Y009540D01*
X014177Y009613D01*
X014310Y009746D01*
X014383Y009921D01*
X014383Y010110D01*
X014310Y010285D01*
X014177Y010418D01*
X014002Y010491D01*
X013765Y010471D02*
X013050Y010471D01*
X013002Y010491D02*
X012813Y010491D01*
X012638Y010418D01*
X012505Y010285D01*
X012432Y010110D01*
X012432Y009921D01*
X012505Y009746D01*
X012638Y009613D01*
X012813Y009540D01*
X013002Y009540D01*
X013177Y009613D01*
X013310Y009746D01*
X013383Y009921D01*
X013383Y010110D01*
X013310Y010285D01*
X013177Y010418D01*
X013002Y010491D01*
X012765Y010471D02*
X012050Y010471D01*
X012002Y010491D02*
X011813Y010491D01*
X011638Y010418D01*
X011505Y010285D01*
X011432Y010110D01*
X011432Y009921D01*
X011505Y009746D01*
X011638Y009613D01*
X011813Y009540D01*
X012002Y009540D01*
X012177Y009613D01*
X012310Y009746D01*
X012383Y009921D01*
X012383Y010110D01*
X012310Y010285D01*
X012177Y010418D01*
X012002Y010491D01*
X011765Y010471D02*
X011050Y010471D01*
X011002Y010491D02*
X011177Y010418D01*
X011310Y010285D01*
X011383Y010110D01*
X011383Y009921D01*
X011310Y009746D01*
X011177Y009613D01*
X011002Y009540D01*
X010813Y009540D01*
X010638Y009613D01*
X010505Y009746D01*
X010432Y009921D01*
X010432Y010110D01*
X010505Y010285D01*
X010638Y010418D01*
X010813Y010491D01*
X011002Y010491D01*
X010765Y010471D02*
X009050Y010471D01*
X009002Y010491D02*
X008813Y010491D01*
X008638Y010418D01*
X008505Y010285D01*
X008432Y010110D01*
X008432Y009921D01*
X008505Y009746D01*
X008638Y009613D01*
X008813Y009540D01*
X009002Y009540D01*
X009177Y009613D01*
X009310Y009746D01*
X009383Y009921D01*
X009383Y010110D01*
X009310Y010285D01*
X009177Y010418D01*
X009002Y010491D01*
X008765Y010471D02*
X008050Y010471D01*
X008002Y010491D02*
X007813Y010491D01*
X007638Y010418D01*
X007505Y010285D01*
X007432Y010110D01*
X007432Y009921D01*
X007505Y009746D01*
X007638Y009613D01*
X007813Y009540D01*
X008002Y009540D01*
X008177Y009613D01*
X008310Y009746D01*
X008383Y009921D01*
X008383Y010110D01*
X008310Y010285D01*
X008177Y010418D01*
X008002Y010491D01*
X007765Y010471D02*
X007050Y010471D01*
X007283Y010313D02*
X007532Y010313D01*
X007451Y010154D02*
X007365Y010154D01*
X007383Y009996D02*
X007432Y009996D01*
X007467Y009837D02*
X007348Y009837D01*
X007243Y009679D02*
X007572Y009679D01*
X008243Y009679D02*
X008572Y009679D01*
X008467Y009837D02*
X008348Y009837D01*
X008383Y009996D02*
X008432Y009996D01*
X008451Y010154D02*
X008365Y010154D01*
X008283Y010313D02*
X008532Y010313D01*
X009283Y010313D02*
X010532Y010313D01*
X010451Y010154D02*
X009365Y010154D01*
X009383Y009996D02*
X010432Y009996D01*
X010467Y009837D02*
X009348Y009837D01*
X009243Y009679D02*
X010572Y009679D01*
X011243Y009679D02*
X011572Y009679D01*
X011467Y009837D02*
X011348Y009837D01*
X011383Y009996D02*
X011432Y009996D01*
X011451Y010154D02*
X011365Y010154D01*
X011283Y010313D02*
X011532Y010313D01*
X011798Y010915D02*
X012017Y010915D01*
X012219Y010999D01*
X012374Y011154D01*
X012428Y011285D01*
X012441Y011254D01*
X012596Y011099D01*
X012798Y011015D01*
X013017Y011015D01*
X013219Y011099D01*
X013374Y011254D01*
X013387Y011285D01*
X013441Y011154D01*
X013596Y010999D01*
X013798Y010915D01*
X014017Y010915D01*
X014219Y010999D01*
X014374Y011154D01*
X014428Y011285D01*
X014441Y011254D01*
X014596Y011099D01*
X014798Y011015D01*
X015017Y011015D01*
X015219Y011099D01*
X015374Y011254D01*
X015387Y011285D01*
X015441Y011154D01*
X015596Y010999D01*
X015798Y010915D01*
X016017Y010915D01*
X016219Y010999D01*
X016374Y011154D01*
X016458Y011356D01*
X016458Y011575D01*
X016374Y011777D01*
X016219Y011932D01*
X016017Y012015D01*
X015798Y012015D01*
X015596Y011932D01*
X015441Y011777D01*
X015428Y011746D01*
X015374Y011877D01*
X015219Y012032D01*
X015017Y012115D01*
X014798Y012115D01*
X014596Y012032D01*
X014441Y011877D01*
X014387Y011746D01*
X014374Y011777D01*
X014219Y011932D01*
X014120Y011973D01*
X014120Y012369D01*
X014150Y012399D01*
X014199Y012517D01*
X014199Y012643D01*
X014150Y012761D01*
X014061Y012850D01*
X013943Y012899D01*
X013817Y012899D01*
X013699Y012850D01*
X013610Y012761D01*
X013561Y012643D01*
X013561Y012517D01*
X013610Y012399D01*
X013640Y012369D01*
X013640Y011950D01*
X013596Y011932D01*
X013441Y011777D01*
X013428Y011746D01*
X013374Y011877D01*
X013219Y012032D01*
X013017Y012115D01*
X012798Y012115D01*
X012596Y012032D01*
X012441Y011877D01*
X012387Y011746D01*
X012374Y011777D01*
X012219Y011932D01*
X012017Y012015D01*
X011798Y012015D01*
X011596Y011932D01*
X011441Y011777D01*
X011428Y011746D01*
X011374Y011877D01*
X011219Y012032D01*
X011017Y012115D01*
X010798Y012115D01*
X010596Y012032D01*
X010441Y011877D01*
X010387Y011746D01*
X010374Y011777D01*
X010219Y011932D01*
X010017Y012015D01*
X009798Y012015D01*
X009596Y011932D01*
X009441Y011777D01*
X009428Y011746D01*
X009374Y011877D01*
X009219Y012032D01*
X009017Y012115D01*
X008798Y012115D01*
X008596Y012032D01*
X008441Y011877D01*
X008387Y011746D01*
X008374Y011777D01*
X008219Y011932D01*
X008017Y012015D01*
X007798Y012015D01*
X007596Y011932D01*
X007441Y011777D01*
X007428Y011746D01*
X007374Y011877D01*
X007219Y012032D01*
X007017Y012115D01*
X006798Y012115D01*
X006596Y012032D01*
X006441Y011877D01*
X006387Y011746D01*
X006374Y011777D01*
X006219Y011932D01*
X006017Y012015D01*
X005798Y012015D01*
X005596Y011932D01*
X005441Y011777D01*
X005428Y011746D01*
X005374Y011877D01*
X005219Y012032D01*
X005017Y012115D01*
X004798Y012115D01*
X004596Y012032D01*
X004441Y011877D01*
X004358Y011675D01*
X004358Y011456D01*
X004441Y011254D01*
X004596Y011099D01*
X004798Y011015D01*
X005017Y011015D01*
X005219Y011099D01*
X005374Y011254D01*
X005387Y011285D01*
X005441Y011154D01*
X005596Y010999D01*
X005798Y010915D01*
X006017Y010915D01*
X006219Y010999D01*
X006374Y011154D01*
X006428Y011285D01*
X006441Y011254D01*
X006596Y011099D01*
X006798Y011015D01*
X007017Y011015D01*
X007219Y011099D01*
X007374Y011254D01*
X007387Y011285D01*
X007441Y011154D01*
X007596Y010999D01*
X007798Y010915D01*
X008017Y010915D01*
X008219Y010999D01*
X008374Y011154D01*
X008428Y011285D01*
X008441Y011254D01*
X008596Y011099D01*
X008798Y011015D01*
X009017Y011015D01*
X009219Y011099D01*
X009374Y011254D01*
X009387Y011285D01*
X009441Y011154D01*
X009596Y010999D01*
X009798Y010915D01*
X010017Y010915D01*
X010219Y010999D01*
X010374Y011154D01*
X010428Y011285D01*
X010441Y011254D01*
X010596Y011099D01*
X010798Y011015D01*
X011017Y011015D01*
X011219Y011099D01*
X011374Y011254D01*
X011387Y011285D01*
X011441Y011154D01*
X011596Y010999D01*
X011798Y010915D01*
X011723Y010947D02*
X010092Y010947D01*
X010325Y011105D02*
X010590Y011105D01*
X010437Y011264D02*
X010419Y011264D01*
X009723Y010947D02*
X008092Y010947D01*
X008325Y011105D02*
X008590Y011105D01*
X008437Y011264D02*
X008419Y011264D01*
X008462Y011898D02*
X008253Y011898D01*
X008655Y012056D02*
X007160Y012056D01*
X007353Y011898D02*
X007562Y011898D01*
X007396Y011264D02*
X007378Y011264D01*
X007490Y011105D02*
X007225Y011105D01*
X007723Y010947D02*
X006092Y010947D01*
X006325Y011105D02*
X006590Y011105D01*
X006437Y011264D02*
X006419Y011264D01*
X005723Y010947D02*
X002360Y010947D01*
X002360Y011105D02*
X004590Y011105D01*
X004437Y011264D02*
X002360Y011264D01*
X002360Y011422D02*
X004372Y011422D01*
X004358Y011581D02*
X002360Y011581D01*
X002360Y011739D02*
X004384Y011739D01*
X004462Y011898D02*
X002360Y011898D01*
X002360Y012056D02*
X004655Y012056D01*
X005160Y012056D02*
X006655Y012056D01*
X006462Y011898D02*
X006253Y011898D01*
X005562Y011898D02*
X005353Y011898D01*
X005378Y011264D02*
X005396Y011264D01*
X005490Y011105D02*
X005225Y011105D01*
X005283Y010313D02*
X005532Y010313D01*
X005451Y010154D02*
X005365Y010154D01*
X005383Y009996D02*
X005432Y009996D01*
X005467Y009837D02*
X005348Y009837D01*
X005243Y009679D02*
X005572Y009679D01*
X004572Y009679D02*
X004243Y009679D01*
X004348Y009837D02*
X004467Y009837D01*
X004432Y009996D02*
X004383Y009996D01*
X004365Y010154D02*
X004451Y010154D01*
X004532Y010313D02*
X004283Y010313D01*
X002575Y009520D02*
X002360Y009520D01*
X002360Y009362D02*
X002362Y009362D01*
X002360Y010630D02*
X021685Y010630D01*
X021685Y010788D02*
X002360Y010788D01*
X002360Y012215D02*
X013640Y012215D01*
X013636Y012373D02*
X002360Y012373D01*
X002360Y012532D02*
X013561Y012532D01*
X013581Y012690D02*
X002360Y012690D01*
X002360Y012849D02*
X013698Y012849D01*
X014062Y012849D02*
X021685Y012849D01*
X021685Y013007D02*
X002360Y013007D01*
X002360Y013166D02*
X021685Y013166D01*
X021685Y013324D02*
X002360Y013324D01*
X002360Y013483D02*
X021685Y013483D01*
X021685Y013641D02*
X002360Y013641D01*
X002360Y013800D02*
X021685Y013800D01*
X021685Y013958D02*
X002360Y013958D01*
X002360Y014117D02*
X021685Y014117D01*
X021685Y014275D02*
X002360Y014275D01*
X002360Y014434D02*
X021685Y014434D01*
X021685Y014592D02*
X002360Y014592D01*
X002360Y014751D02*
X021685Y014751D01*
X021685Y014909D02*
X002360Y014909D01*
X002360Y015068D02*
X021685Y015068D01*
X021685Y015226D02*
X002360Y015226D01*
X002360Y015385D02*
X021685Y015385D01*
X021685Y015543D02*
X002360Y015543D01*
X002360Y015702D02*
X021685Y015702D01*
X021685Y015860D02*
X002360Y015860D01*
X002360Y016019D02*
X021685Y016019D01*
X021685Y016177D02*
X002360Y016177D01*
X002360Y016336D02*
X015691Y016336D01*
X015671Y016344D02*
X015873Y016260D01*
X016092Y016260D01*
X016294Y016344D01*
X016449Y016499D01*
X016533Y016701D01*
X016533Y016920D01*
X016449Y017122D01*
X016294Y017276D01*
X016092Y017360D01*
X015873Y017360D01*
X015671Y017276D01*
X015516Y017122D01*
X015433Y016920D01*
X015433Y016701D01*
X015516Y016499D01*
X015671Y016344D01*
X015521Y016494D02*
X002360Y016494D01*
X002360Y016653D02*
X015453Y016653D01*
X015433Y016811D02*
X002360Y016811D01*
X002360Y016970D02*
X015453Y016970D01*
X015523Y017128D02*
X002360Y017128D01*
X002360Y017287D02*
X015695Y017287D01*
X015765Y017445D02*
X002360Y017445D01*
X002360Y017604D02*
X015551Y017604D01*
X015516Y017639D02*
X015671Y017484D01*
X015873Y017400D01*
X016092Y017400D01*
X016294Y017484D01*
X016449Y017639D01*
X016533Y017841D01*
X016533Y018060D01*
X016449Y018262D01*
X016294Y018416D01*
X016092Y018500D01*
X015873Y018500D01*
X015671Y018416D01*
X015516Y018262D01*
X015433Y018060D01*
X015433Y017841D01*
X015516Y017639D01*
X015465Y017762D02*
X003291Y017762D01*
X003419Y017921D02*
X015433Y017921D01*
X015441Y018079D02*
X003481Y018079D01*
X003481Y018238D02*
X015506Y018238D01*
X015651Y018396D02*
X003437Y018396D01*
X003335Y018555D02*
X021685Y018555D01*
X021685Y018713D02*
X013732Y018713D01*
X013741Y018717D02*
X013896Y018872D01*
X013979Y019074D01*
X013979Y019293D01*
X013896Y019495D01*
X013741Y019649D01*
X013710Y019662D01*
X013841Y019717D01*
X013996Y019872D01*
X014079Y020074D01*
X014079Y020293D01*
X013996Y020495D01*
X013841Y020649D01*
X013639Y020733D01*
X013420Y020733D01*
X013218Y020649D01*
X013063Y020495D01*
X012979Y020293D01*
X012979Y020074D01*
X013063Y019872D01*
X013218Y019717D01*
X013249Y019704D01*
X013118Y019649D01*
X012963Y019495D01*
X012879Y019293D01*
X012879Y019074D01*
X012963Y018872D01*
X013118Y018717D01*
X013320Y018633D01*
X013539Y018633D01*
X013741Y018717D01*
X013896Y018872D02*
X021685Y018872D01*
X021685Y019030D02*
X013961Y019030D01*
X013979Y019189D02*
X021685Y019189D01*
X021685Y019347D02*
X013957Y019347D01*
X013885Y019506D02*
X016718Y019506D01*
X016695Y019515D02*
X016897Y019432D01*
X017116Y019432D01*
X017318Y019515D01*
X017472Y019670D01*
X017556Y019872D01*
X017556Y020091D01*
X017472Y020293D01*
X017318Y020448D01*
X017116Y020532D01*
X016897Y020532D01*
X016695Y020448D01*
X016540Y020293D01*
X016456Y020091D01*
X016456Y019872D01*
X016540Y019670D01*
X016695Y019515D01*
X016546Y019664D02*
X013713Y019664D01*
X013947Y019823D02*
X016477Y019823D01*
X016456Y019981D02*
X014041Y019981D01*
X014079Y020140D02*
X016476Y020140D01*
X016545Y020298D02*
X014077Y020298D01*
X014012Y020457D02*
X016715Y020457D01*
X017297Y020457D02*
X017855Y020457D01*
X017835Y020448D02*
X017680Y020293D01*
X017596Y020091D01*
X017596Y019872D01*
X017680Y019670D01*
X017835Y019515D01*
X018037Y019432D01*
X018256Y019432D01*
X018458Y019515D01*
X018612Y019670D01*
X018696Y019872D01*
X018696Y020091D01*
X018612Y020293D01*
X018458Y020448D01*
X018256Y020532D01*
X018037Y020532D01*
X017835Y020448D01*
X017685Y020298D02*
X017468Y020298D01*
X017536Y020140D02*
X017616Y020140D01*
X017596Y019981D02*
X017556Y019981D01*
X017536Y019823D02*
X017617Y019823D01*
X017686Y019664D02*
X017466Y019664D01*
X017294Y019506D02*
X017858Y019506D01*
X018434Y019506D02*
X021685Y019506D01*
X021685Y019664D02*
X018606Y019664D01*
X018676Y019823D02*
X021685Y019823D01*
X021685Y019981D02*
X018696Y019981D01*
X018676Y020140D02*
X021685Y020140D01*
X021685Y020298D02*
X018608Y020298D01*
X018437Y020457D02*
X021685Y020457D01*
X021685Y020615D02*
X013875Y020615D01*
X013184Y020615D02*
X012382Y020615D01*
X012347Y020649D02*
X012502Y020495D01*
X012586Y020293D01*
X012586Y020074D01*
X012502Y019872D01*
X012347Y019717D01*
X012216Y019662D01*
X012247Y019649D01*
X012402Y019495D01*
X012486Y019293D01*
X012486Y019074D01*
X012402Y018872D01*
X012247Y018717D01*
X012045Y018633D01*
X011826Y018633D01*
X011624Y018717D01*
X011470Y018872D01*
X011386Y019074D01*
X011386Y019293D01*
X011470Y019495D01*
X011624Y019649D01*
X011756Y019704D01*
X011724Y019717D01*
X011570Y019872D01*
X011486Y020074D01*
X011486Y020293D01*
X011570Y020495D01*
X011724Y020649D01*
X011926Y020733D01*
X012145Y020733D01*
X012347Y020649D01*
X012518Y020457D02*
X013047Y020457D01*
X012982Y020298D02*
X012584Y020298D01*
X012586Y020140D02*
X012979Y020140D01*
X013018Y019981D02*
X012547Y019981D01*
X012453Y019823D02*
X013112Y019823D01*
X013153Y019664D02*
X012220Y019664D01*
X012391Y019506D02*
X012974Y019506D01*
X012902Y019347D02*
X012463Y019347D01*
X012486Y019189D02*
X012879Y019189D01*
X012898Y019030D02*
X012468Y019030D01*
X012402Y018872D02*
X012963Y018872D01*
X013127Y018713D02*
X012238Y018713D01*
X011634Y018713D02*
X010735Y018713D01*
X010743Y018716D02*
X010898Y018871D01*
X010982Y019073D01*
X010982Y019292D01*
X010898Y019494D01*
X010743Y019649D01*
X010712Y019662D01*
X010843Y019716D01*
X010998Y019871D01*
X011082Y020073D01*
X011082Y020292D01*
X010998Y020494D01*
X010843Y020649D01*
X010641Y020733D01*
X010422Y020733D01*
X010220Y020649D01*
X010065Y020494D01*
X009982Y020292D01*
X009982Y020073D01*
X010065Y019871D01*
X010220Y019716D01*
X010251Y019703D01*
X010120Y019649D01*
X009965Y019494D01*
X009882Y019292D01*
X009882Y019073D01*
X009965Y018871D01*
X010120Y018716D01*
X010322Y018633D01*
X010541Y018633D01*
X010743Y018716D01*
X010898Y018872D02*
X011470Y018872D01*
X011404Y019030D02*
X010964Y019030D01*
X010982Y019189D02*
X011386Y019189D01*
X011408Y019347D02*
X010959Y019347D01*
X010886Y019506D02*
X011480Y019506D01*
X011660Y019664D02*
X010717Y019664D01*
X010949Y019823D02*
X011619Y019823D01*
X011524Y019981D02*
X011043Y019981D01*
X011082Y020140D02*
X011486Y020140D01*
X011488Y020298D02*
X011079Y020298D01*
X011013Y020457D02*
X011554Y020457D01*
X011690Y020615D02*
X010877Y020615D01*
X010186Y020615D02*
X009372Y020615D01*
X009339Y020648D02*
X009137Y020732D01*
X008918Y020732D01*
X008716Y020648D01*
X008562Y020493D01*
X008478Y020291D01*
X008478Y020072D01*
X008562Y019870D01*
X008716Y019715D01*
X008748Y019702D01*
X008616Y019648D01*
X008462Y019493D01*
X008378Y019291D01*
X008378Y019072D01*
X008462Y018870D01*
X008616Y018715D01*
X008818Y018632D01*
X009037Y018632D01*
X009239Y018715D01*
X009394Y018870D01*
X009478Y019072D01*
X009478Y019291D01*
X009394Y019493D01*
X009239Y019648D01*
X009208Y019661D01*
X009339Y019715D01*
X009494Y019870D01*
X009578Y020072D01*
X009578Y020291D01*
X009494Y020493D01*
X009339Y020648D01*
X009509Y020457D02*
X010050Y020457D01*
X009984Y020298D02*
X009575Y020298D01*
X009578Y020140D02*
X009982Y020140D01*
X010020Y019981D02*
X009540Y019981D01*
X009447Y019823D02*
X010114Y019823D01*
X010157Y019664D02*
X009215Y019664D01*
X009382Y019506D02*
X009977Y019506D01*
X009904Y019347D02*
X009455Y019347D01*
X009478Y019189D02*
X009882Y019189D01*
X009899Y019030D02*
X009460Y019030D01*
X009395Y018872D02*
X009965Y018872D01*
X010128Y018713D02*
X009234Y018713D01*
X008622Y018713D02*
X007739Y018713D01*
X007743Y018715D02*
X007898Y018869D01*
X007982Y019072D01*
X007982Y019290D01*
X007898Y019493D01*
X007743Y019647D01*
X007712Y019660D01*
X007843Y019715D01*
X007998Y019869D01*
X008082Y020072D01*
X008082Y020290D01*
X007998Y020493D01*
X007843Y020647D01*
X007641Y020731D01*
X007422Y020731D01*
X007220Y020647D01*
X007066Y020493D01*
X006982Y020290D01*
X006982Y020072D01*
X007066Y019869D01*
X007220Y019715D01*
X007252Y019702D01*
X007120Y019647D01*
X006966Y019493D01*
X006882Y019290D01*
X006882Y019072D01*
X006966Y018869D01*
X007120Y018715D01*
X007322Y018631D01*
X007541Y018631D01*
X007743Y018715D01*
X007899Y018872D02*
X008461Y018872D01*
X008395Y019030D02*
X007965Y019030D01*
X007982Y019189D02*
X008378Y019189D01*
X008401Y019347D02*
X007958Y019347D01*
X007885Y019506D02*
X008474Y019506D01*
X008655Y019664D02*
X007721Y019664D01*
X007951Y019823D02*
X008609Y019823D01*
X008516Y019981D02*
X008044Y019981D01*
X008082Y020140D02*
X008478Y020140D01*
X008481Y020298D02*
X008079Y020298D01*
X008013Y020457D02*
X008546Y020457D01*
X008683Y020615D02*
X007876Y020615D01*
X007188Y020615D02*
X006370Y020615D01*
X006337Y020647D02*
X006135Y020731D01*
X005916Y020731D01*
X005714Y020647D01*
X005559Y020493D01*
X005476Y020290D01*
X005476Y020072D01*
X005559Y019869D01*
X005714Y019715D01*
X005746Y019702D01*
X005614Y019647D01*
X005459Y019493D01*
X005376Y019290D01*
X005376Y019072D01*
X005459Y018869D01*
X005614Y018715D01*
X005816Y018631D01*
X006035Y018631D01*
X006237Y018715D01*
X006392Y018869D01*
X006476Y019072D01*
X006476Y019290D01*
X006392Y019493D01*
X006237Y019647D01*
X006206Y019660D01*
X006337Y019715D01*
X006492Y019869D01*
X006576Y020072D01*
X006576Y020290D01*
X006492Y020493D01*
X006337Y020647D01*
X006507Y020457D02*
X007051Y020457D01*
X006985Y020298D02*
X006573Y020298D01*
X006576Y020140D02*
X006982Y020140D01*
X007019Y019981D02*
X006538Y019981D01*
X006445Y019823D02*
X007112Y019823D01*
X007161Y019664D02*
X006215Y019664D01*
X006379Y019506D02*
X006978Y019506D01*
X006905Y019347D02*
X006452Y019347D01*
X006476Y019189D02*
X006882Y019189D01*
X006899Y019030D02*
X006459Y019030D01*
X006393Y018872D02*
X006965Y018872D01*
X007124Y018713D02*
X006233Y018713D01*
X005618Y018713D02*
X004737Y018713D01*
X004741Y018715D02*
X004896Y018869D01*
X004980Y019072D01*
X004980Y019290D01*
X004896Y019493D01*
X004741Y019647D01*
X004710Y019660D01*
X004841Y019715D01*
X004996Y019869D01*
X005080Y020072D01*
X005080Y020290D01*
X004996Y020493D01*
X004841Y020647D01*
X004639Y020731D01*
X004420Y020731D01*
X004218Y020647D01*
X004063Y020493D01*
X003980Y020290D01*
X003980Y020072D01*
X004063Y019869D01*
X004218Y019715D01*
X004250Y019702D01*
X004118Y019647D01*
X003963Y019493D01*
X003880Y019290D01*
X003880Y019072D01*
X003963Y018869D01*
X004118Y018715D01*
X004320Y018631D01*
X004539Y018631D01*
X004741Y018715D01*
X004897Y018872D02*
X005459Y018872D01*
X005393Y019030D02*
X004962Y019030D01*
X004980Y019189D02*
X005376Y019189D01*
X005399Y019347D02*
X004956Y019347D01*
X004883Y019506D02*
X005472Y019506D01*
X005655Y019664D02*
X004719Y019664D01*
X004949Y019823D02*
X005606Y019823D01*
X005513Y019981D02*
X005042Y019981D01*
X005080Y020140D02*
X005476Y020140D01*
X005479Y020298D02*
X005077Y020298D01*
X005011Y020457D02*
X005545Y020457D01*
X005682Y020615D02*
X004873Y020615D01*
X004186Y020615D02*
X003274Y020615D01*
X003412Y020457D02*
X004048Y020457D01*
X003983Y020298D02*
X003478Y020298D01*
X003481Y020140D02*
X003980Y020140D01*
X004017Y019981D02*
X003444Y019981D01*
X003351Y019823D02*
X004110Y019823D01*
X004159Y019664D02*
X003122Y019664D01*
X003284Y019506D02*
X003976Y019506D01*
X003903Y019347D02*
X003357Y019347D01*
X003381Y019189D02*
X003880Y019189D01*
X003897Y019030D02*
X003364Y019030D01*
X003298Y018872D02*
X003963Y018872D01*
X004122Y018713D02*
X003140Y018713D01*
X002522Y018713D02*
X002360Y018713D01*
X002360Y018555D02*
X002527Y018555D01*
X002425Y018396D02*
X002360Y018396D01*
X002360Y018238D02*
X002381Y018238D01*
X002381Y018079D02*
X002360Y018079D01*
X002360Y017921D02*
X002443Y017921D01*
X002360Y017762D02*
X002572Y017762D01*
X002364Y018872D02*
X002360Y018872D01*
X002360Y019506D02*
X002378Y019506D01*
X002360Y019664D02*
X002561Y019664D01*
X002511Y019823D02*
X002360Y019823D01*
X002360Y019981D02*
X002418Y019981D01*
X002381Y020140D02*
X002360Y020140D01*
X002360Y020298D02*
X002385Y020298D01*
X002360Y020457D02*
X002450Y020457D01*
X002360Y020615D02*
X002588Y020615D01*
X009160Y012056D02*
X010655Y012056D01*
X010462Y011898D02*
X010253Y011898D01*
X009562Y011898D02*
X009353Y011898D01*
X009378Y011264D02*
X009396Y011264D01*
X009490Y011105D02*
X009225Y011105D01*
X011225Y011105D02*
X011490Y011105D01*
X011396Y011264D02*
X011378Y011264D01*
X012092Y010947D02*
X013723Y010947D01*
X013490Y011105D02*
X013225Y011105D01*
X013378Y011264D02*
X013396Y011264D01*
X013353Y011898D02*
X013562Y011898D01*
X013640Y012056D02*
X013160Y012056D01*
X012655Y012056D02*
X011160Y012056D01*
X011353Y011898D02*
X011562Y011898D01*
X012253Y011898D02*
X012462Y011898D01*
X012437Y011264D02*
X012419Y011264D01*
X012325Y011105D02*
X012590Y011105D01*
X012532Y010313D02*
X012283Y010313D01*
X012365Y010154D02*
X012451Y010154D01*
X012432Y009996D02*
X012383Y009996D01*
X012348Y009837D02*
X012467Y009837D01*
X012572Y009679D02*
X012243Y009679D01*
X013243Y009679D02*
X013572Y009679D01*
X013467Y009837D02*
X013348Y009837D01*
X013383Y009996D02*
X013432Y009996D01*
X013451Y010154D02*
X013365Y010154D01*
X013283Y010313D02*
X013532Y010313D01*
X014243Y009679D02*
X014572Y009679D01*
X014467Y009837D02*
X014348Y009837D01*
X014383Y009996D02*
X014432Y009996D01*
X014451Y010154D02*
X014365Y010154D01*
X014283Y010313D02*
X014532Y010313D01*
X015283Y010313D02*
X015532Y010313D01*
X015451Y010154D02*
X015365Y010154D01*
X015383Y009996D02*
X015432Y009996D01*
X015467Y009837D02*
X015348Y009837D01*
X015243Y009679D02*
X015572Y009679D01*
X016243Y009679D02*
X016572Y009679D01*
X016467Y009837D02*
X016348Y009837D01*
X016383Y009996D02*
X016432Y009996D01*
X016451Y010154D02*
X016365Y010154D01*
X016283Y010313D02*
X016532Y010313D01*
X016092Y010947D02*
X021685Y010947D01*
X021685Y011105D02*
X016325Y011105D01*
X016419Y011264D02*
X021685Y011264D01*
X021685Y011422D02*
X016458Y011422D01*
X016455Y011581D02*
X021685Y011581D01*
X021685Y011739D02*
X016390Y011739D01*
X016253Y011898D02*
X021685Y011898D01*
X021685Y012056D02*
X015160Y012056D01*
X015353Y011898D02*
X015562Y011898D01*
X015396Y011264D02*
X015378Y011264D01*
X015490Y011105D02*
X015225Y011105D01*
X015723Y010947D02*
X014092Y010947D01*
X014325Y011105D02*
X014590Y011105D01*
X014437Y011264D02*
X014419Y011264D01*
X014462Y011898D02*
X014253Y011898D01*
X014120Y012056D02*
X014655Y012056D01*
X014120Y012215D02*
X021685Y012215D01*
X021685Y012373D02*
X014124Y012373D01*
X014199Y012532D02*
X021685Y012532D01*
X021685Y012690D02*
X014179Y012690D01*
X016274Y016336D02*
X018695Y016336D01*
X018666Y016348D02*
X018868Y016264D01*
X019087Y016264D01*
X019289Y016348D01*
X019444Y016502D01*
X019528Y016704D01*
X019528Y016923D01*
X019444Y017125D01*
X019289Y017280D01*
X019087Y017364D01*
X018868Y017364D01*
X018666Y017280D01*
X018512Y017125D01*
X018428Y016923D01*
X018428Y016704D01*
X018512Y016502D01*
X018666Y016348D01*
X018520Y016494D02*
X016444Y016494D01*
X016513Y016653D02*
X018449Y016653D01*
X018428Y016811D02*
X016533Y016811D01*
X016512Y016970D02*
X018447Y016970D01*
X018514Y017128D02*
X016443Y017128D01*
X016270Y017287D02*
X018682Y017287D01*
X018769Y017445D02*
X016200Y017445D01*
X016414Y017604D02*
X018550Y017604D01*
X018512Y017642D02*
X018666Y017488D01*
X018868Y017404D01*
X019087Y017404D01*
X019289Y017488D01*
X019444Y017642D01*
X019528Y017844D01*
X019528Y018063D01*
X019444Y018265D01*
X019289Y018420D01*
X019087Y018504D01*
X018868Y018504D01*
X018666Y018420D01*
X018512Y018265D01*
X018428Y018063D01*
X018428Y017844D01*
X018512Y017642D01*
X018462Y017762D02*
X016500Y017762D01*
X016533Y017921D02*
X018428Y017921D01*
X018434Y018079D02*
X016525Y018079D01*
X016459Y018238D02*
X018500Y018238D01*
X018642Y018396D02*
X016315Y018396D01*
X019313Y018396D02*
X021685Y018396D01*
X021685Y018238D02*
X019456Y018238D01*
X019521Y018079D02*
X021685Y018079D01*
X021685Y017921D02*
X019528Y017921D01*
X019494Y017762D02*
X021685Y017762D01*
X021685Y017604D02*
X019405Y017604D01*
X019187Y017445D02*
X021685Y017445D01*
X021685Y017287D02*
X019274Y017287D01*
X019441Y017128D02*
X021685Y017128D01*
X021685Y016970D02*
X019509Y016970D01*
X019528Y016811D02*
X021685Y016811D01*
X021685Y016653D02*
X019506Y016653D01*
X019436Y016494D02*
X021685Y016494D01*
X021685Y016336D02*
X019260Y016336D01*
X016328Y008728D02*
X006829Y008728D01*
X013294Y007301D02*
X013521Y007301D01*
X013446Y007143D02*
X013369Y007143D01*
X013383Y006984D02*
X013432Y006984D01*
X013472Y006826D02*
X013343Y006826D01*
X013231Y006667D02*
X013584Y006667D01*
D16*
X017180Y006369D03*
X013880Y012580D03*
X008123Y012896D03*
X008123Y013408D03*
X008123Y013880D03*
X008045Y016754D03*
X014580Y018959D03*
X006353Y009440D03*
X006511Y008731D03*
X004621Y007629D03*
X003519Y005857D03*
X003046Y004676D03*
D17*
X002694Y006015D02*
X003908Y007015D01*
X004306Y007904D01*
X004621Y007629D02*
X004587Y007615D01*
X004555Y007598D01*
X004525Y007578D01*
X004496Y007555D01*
X004470Y007529D01*
X004447Y007501D01*
X004426Y007472D01*
X004408Y007440D01*
X004394Y007407D01*
X004382Y007372D01*
X004374Y007336D01*
X004369Y007300D01*
X004368Y007264D01*
X004370Y007228D01*
X004376Y007192D01*
X004385Y007156D01*
X004396Y007114D01*
X004403Y007071D01*
X004407Y007028D01*
X004406Y006984D01*
X004402Y006941D01*
X004394Y006898D01*
X004382Y006856D01*
X004366Y006815D01*
X004347Y006776D01*
X004325Y006739D01*
X004299Y006704D01*
X004271Y006671D01*
X004239Y006641D01*
X004205Y006614D01*
X004169Y006590D01*
X004131Y006569D01*
X004091Y006551D01*
X004049Y006538D01*
X004007Y006528D01*
X003964Y006521D01*
X003920Y006519D01*
X003877Y006520D01*
X003834Y006526D01*
X003833Y006526D02*
X003797Y006530D01*
X003761Y006531D01*
X003724Y006527D01*
X003688Y006520D01*
X003653Y006509D01*
X003620Y006494D01*
X003588Y006476D01*
X003558Y006455D01*
X003531Y006430D01*
X003507Y006403D01*
X003485Y006374D01*
X003467Y006342D01*
X003452Y006309D01*
X003440Y006274D01*
X003432Y006238D01*
X003429Y006202D01*
X003428Y006165D01*
X003432Y006129D01*
X003440Y006093D01*
X003463Y006013D01*
X003489Y005935D01*
X003518Y005857D01*
X005408Y004952D02*
X006314Y004952D01*
X006362Y004954D01*
X006409Y004960D01*
X006456Y004969D01*
X006501Y004982D01*
X006546Y004999D01*
X006589Y005019D01*
X006630Y005043D01*
X006670Y005070D01*
X006706Y005100D01*
X006741Y005133D01*
X006773Y005169D01*
X006801Y005207D01*
X006827Y005247D01*
X006849Y005289D01*
X006868Y005332D01*
X006884Y005378D01*
X006895Y005424D01*
X006903Y005471D01*
X006907Y005518D01*
X006908Y005566D01*
X016432Y006960D02*
X016425Y007118D01*
X016413Y007275D01*
X016432Y006960D02*
X016435Y006920D01*
X016442Y006879D01*
X016452Y006840D01*
X016465Y006802D01*
X016482Y006765D01*
X016501Y006729D01*
X016524Y006695D01*
X016549Y006663D01*
X016577Y006634D01*
X016607Y006607D01*
X016639Y006582D01*
X016674Y006561D01*
X016710Y006542D01*
X016747Y006527D01*
X016747Y006526D02*
X017180Y006369D01*
X016471Y004952D02*
X016196Y004912D01*
X014463Y004912D01*
X014417Y004914D01*
X014372Y004920D01*
X014327Y004929D01*
X014283Y004942D01*
X014240Y004959D01*
X014199Y004979D01*
X014160Y005002D01*
X014122Y005029D01*
X014087Y005058D01*
X014055Y005090D01*
X014025Y005125D01*
X013998Y005162D01*
X013975Y005202D01*
X013955Y005243D01*
X013938Y005285D01*
X013925Y005329D01*
X013915Y005374D01*
X013909Y005419D01*
X013907Y005465D01*
X006511Y008731D02*
X006353Y009440D01*
X016589Y008574D02*
X016510Y008144D01*
X016451Y007710D01*
X016412Y007275D01*
D18*
X016412Y007274D03*
X016589Y008574D03*
X016471Y004952D03*
X005408Y004952D03*
X004306Y007904D03*
D19*
X013880Y011680D02*
X013880Y012580D01*
X013880Y011680D02*
X013882Y011626D01*
X013887Y011572D01*
X013896Y011518D01*
X013908Y011465D01*
M02*
