%
M48
M72
T01C0.0120
T02C0.0157
T03C0.0236
T04C0.0315
T05C0.0320
T06C0.0400
%
T01
X5408Y4952
X4306Y7904
X16412Y7274
X16589Y8574
X16471Y4952
T02
X3046Y4676
X3519Y5857
X4621Y7629
X6511Y8731
X6353Y9440
X8123Y12896
X8123Y13408
X8123Y13880
X8045Y16754
X13880Y12580
X17180Y6369
X14580Y18959
T03
X13719Y13889
X13189Y8710
X8011Y8419
X19782Y11645
X21121Y13828
X20373Y7117
X21352Y5387
T04
X18965Y6176
X18965Y8097
T05
X16908Y7015
X15908Y7015
X14908Y7015
X13908Y7015
X12908Y7015
X11908Y7015
X10908Y7015
X9908Y7015
X8908Y7015
X7908Y7015
X6908Y7015
X5908Y7015
X4908Y7015
X3908Y7015
X3908Y10015
X4908Y10015
X5908Y10015
X6908Y10015
X7908Y10015
X8908Y10015
X9908Y10015
X10908Y10015
X11908Y10015
X12908Y10015
X13908Y10015
X14908Y10015
X15908Y10015
X16908Y10015
T06
X15908Y11465
X14908Y11565
X13908Y11465
X12908Y11565
X11908Y11465
X10908Y11565
X9908Y11465
X8908Y11565
X7908Y11465
X6908Y11565
X5908Y11465
X4908Y11565
X2794Y11015
X2694Y10015
X2794Y9015
X2694Y8015
X2794Y7015
X2694Y6015
X4908Y5565
X5908Y5465
X6908Y5565
X7908Y5465
X8908Y5565
X9908Y5465
X10908Y5565
X11908Y5465
X12908Y5565
X13908Y5465
X14908Y5565
X15908Y5465
X15857Y3917
X14857Y4017
X13857Y3917
X12857Y4017
X11857Y3917
X10857Y4017
X9857Y3917
X8857Y4017
X7857Y3917
X6857Y4017
X5857Y3917
X4857Y4017
X16857Y4017
X17857Y3917
X18857Y4017
X19857Y3917
X18978Y16814
X18978Y17954
X18146Y19982
X17006Y19982
X15983Y17950
X15983Y16810
X13529Y18183
X13429Y19183
X13529Y20183
X12036Y20183
X11936Y19183
X12036Y18183
X10532Y18183
X10432Y19183
X10532Y20183
X9028Y20182
X8928Y19182
X9028Y18182
X7532Y18181
X7432Y19181
X7532Y20181
X6026Y20181
X5926Y19181
X6026Y18181
X4530Y18181
X4430Y19181
X4530Y20181
X2931Y20180
X2831Y19180
X2931Y18180
X2831Y17180
M30
